<?xml version="1.0" encoding="UTF-8" standalone="no"?>
<svg width="167px" height="28px" viewBox="0 0 167 28" version="1.1" xmlns="http://www.w3.org/2000/svg" xmlns:xlink="http://www.w3.org/1999/xlink">
    <!-- Generator: Sketch 39.1 (31720) - http://www.bohemiancoding.com/sketch -->
    <title>ucdavislogo</title>
    <desc>Created with Sketch.</desc>
    <defs></defs>
    <g id="Page-1" stroke="none" stroke-width="1" fill="none" fill-rule="evenodd">
        <g id="landing1" transform="translate(-136.000000, -39.000000)" fill="#C99700">
            <g id="ucdavislogo" transform="translate(136.000000, 39.000000)">
                <path d="M146.157182,25.350569 L148.827217,18.2630197 L149.29246,18.6656676 C150.931417,20.0076958 153.153892,21.1493859 155.25377,21.1935549 C157.129278,21.2373296 158.047189,20.7360901 157.797278,19.1428507 C157.611417,17.9518648 156.272274,17.7428507 155.437274,17.5772169 L153.600667,17.2092732 C150.029617,16.5400338 147.025975,14.3280338 147.025975,10.1414423 C147.025975,3.80910423 152.466638,0.25783662 157.937165,0.25783662 C160.812709,0.25783662 163.44738,0.992146479 165.917015,2.60234366 L163.598662,8.88301972 C162.326711,7.96414648 160.402871,6.67062535 157.965457,6.58149859 C157.16425,6.55152676 155.331572,6.97270986 155.917841,8.84161127 C156.171681,9.63665352 157.308067,9.97107606 158.00593,10.1414423 L160.076337,10.6430761 C163.94838,11.5473577 166.749657,13.7581746 166.749657,18.2795831 C166.749657,24.6450479 161.277165,27.7960338 155.838467,27.7960338 C152.667431,27.7960338 148.993038,26.8901746 146.157182,25.350569 L146.157182,25.350569 Z" id="Fill-1"></path>
                <polygon id="Fill-3" points="135.031485 27.3970141 144.188586 27.3970141 144.188586 0.692112676 135.031485 0.692112676"></polygon>
                <polygon id="Fill-5" points="124.52856 0.692270423 134.073101 0.692270423 124.326588 27.3971718 116.583682 27.3971718 106.869391 0.692270423 116.380532 0.692270423 120.455725 16.8056789"></polygon>
                <path d="M98.1546626,8.40015775 L98.1546626,8.40015775 C98.3248061,9.53672113 99.9916626,17.7095662 99.9916626,17.7095662 L96.3302367,17.7095662 L98.1546626,8.40015775 Z M84.2704791,27.3971718 L93.9497991,27.3971718 L94.6845991,24.0430873 L101.593684,24.0430873 L102.510416,27.3971718 L112.193272,27.3971718 L103.128512,0.692270423 L92.9756979,0.692270423 L84.2704791,27.3971718 Z" id="Fill-6"></path>
                <path d="M60.5009958,0.692270423 L69.8816805,0.692270423 C78.395144,0.692270423 84.901464,4.61463662 84.901464,14.4292282 C84.901464,22.3366648 79.5967581,27.3971718 72.1517016,27.3971718 L60.5009958,27.3825803 L60.5009958,0.692270423 Z M69.7146805,19.7287211 L70.3414216,19.7287211 C73.4126499,19.7287211 75.6901369,17.879538 75.6901369,14.3953127 C75.6901369,10.6429183 73.6712052,8.54962254 70.298984,8.54962254 L69.7146805,8.54962254 L69.7146805,19.7287211 Z" id="Fill-7"></path>
                <path d="M54.9274788,1.52994366 L55.4241565,5.91056338 C55.5412529,6.95169014 56.1314506,9.4476338 55.4037235,9.11360563 C54.9447682,8.90735211 54.5683306,7.77473239 54.1930718,6.77185915 C54.0032812,6.26115493 53.0955871,3.84960563 52.8582506,3.67174648 C51.7120412,2.8104507 48.8526082,1.84070423 46.9185518,1.83202817 C41.0499753,1.8095493 37.1692882,6.15309859 37.1692882,13.8594085 C37.1692882,19.3864507 39.8071024,26.018507 46.5153941,26.018507 C48.9198012,26.018507 53.5242859,25.2589577 54.7773753,21.8267887 C55.3428176,20.2729859 55.8622859,18.893493 56.2375447,19.3111268 C56.5149612,19.618338 56.1534553,20.8617746 55.9864553,21.5310141 C55.1954647,24.7135493 55.1526341,25.6769859 54.9019376,25.8012113 C51.8703965,27.3270141 47.9842082,27.8306197 44.5809447,27.8306197 C33.7636671,27.8306197 30.0260106,21.4970986 30.0260106,15.1659437 C30.0260106,4.17732394 36.7523776,-0.370901408 47.1826082,0.0234647887 C49.8184576,0.12284507 52.4562718,0.59371831 54.9274788,1.52994366" id="Fill-8"></path>
                <path d="M22.9822256,2.01576338 L21.2513198,1.4100169 C20.6678021,0.884721127 21.376668,0.7392 21.376668,0.7392 C21.376668,0.7392 23.8797033,1.20415775 30.1192162,0.67491831 C30.1192162,0.67491831 30.6606892,0.782185915 30.2842515,1.22308732 L28.2401715,2.10212958 C26.9057433,2.68658028 26.9057433,2.35176338 26.9057433,3.81722817 L26.8951339,17.4268056 C26.8951339,28.0695662 16.1053621,27.8309746 14.0027339,27.8309746 C13.0030915,27.8309746 3.187028,27.8309746 3.187028,19.2854535 L3.187028,4.8808338 C3.187028,2.36832676 3.45383506,2.43576338 2.62119271,2.1403831 L0.117371529,1.19824225 C0.117371529,1.19824225 -0.304254353,0.595650704 0.449799765,0.634298592 C2.49505859,0.7392 5.45783506,1.17891831 12.3433433,0.67491831 C12.3433433,0.67491831 12.9476868,0.822805634 12.5504233,1.26173521 L10.548388,1.84894648 C8.96287035,2.5615662 9.17270094,2.01576338 9.13026329,3.6500169 L9.17938094,17.8542986 C9.17938094,21.3381296 10.9656915,25.6493408 16.5057692,25.6493408 C24.1520115,25.6493408 24.2231339,19.0121577 24.2231339,17.5372282 L24.2372798,3.46466479 C24.3190115,2.1403831 24.1520115,2.51818592 22.9822256,2.01576338" id="Fill-9"></path>
            </g>
        </g>
    </g>
</svg>