<?xml version="1.0" encoding="UTF-8"?>
<svg width="372px" height="30px" viewBox="0 0 372 30" version="1.1" xmlns="http://www.w3.org/2000/svg" xmlns:xlink="http://www.w3.org/1999/xlink">
    <!-- Generator: Sketch 41.2 (35397) - http://www.bohemiancoding.com/sketch -->
    <title>caes-logo</title>
    <desc>Created with Sketch.</desc>
    <defs>
        <filter x="-50%" y="-50%" width="200%" height="200%" filterUnits="objectBoundingBox" id="filter-1">
            <feOffset dx="0" dy="1" in="SourceAlpha" result="shadowOffsetOuter1"></feOffset>
            <feGaussianBlur stdDeviation="1.5" in="shadowOffsetOuter1" result="shadowBlurOuter1"></feGaussianBlur>
            <feColorMatrix values="0 0 0 0 0.36030506   0 0 0 0 0.36030506   0 0 0 0 0.36030506  0 0 0 0.5 0" type="matrix" in="shadowBlurOuter1" result="shadowMatrixOuter1"></feColorMatrix>
            <feMerge>
                <feMergeNode in="shadowMatrixOuter1"></feMergeNode>
                <feMergeNode in="SourceGraphic"></feMergeNode>
            </feMerge>
        </filter>
    </defs>
    <g id="Current" stroke="none" stroke-width="1" fill="none" fill-rule="evenodd">
        <g id="Event_full" transform="translate(-913.000000, -11.000000)" fill="#FFFFFF">
            <g id="UC-Davis-Registration-Header" filter="url(#filter-1)">
                <g id="caes-logo" transform="translate(916.345468, 13.000000)">
                    <g id="ucdavis-logo" transform="translate(0.000000, 1.000000)" fill-opacity="0.98">
                        <path d="M118.840375,20.1648757 L121.009403,14.5297521 L121.383076,14.8502807 C122.712126,15.916907 124.516117,16.8244276 126.217269,16.8607284 C127.740221,16.8947122 128.482856,16.4961755 128.280319,15.2287361 C128.131164,14.2825976 127.043902,14.1157683 126.365639,13.9844674 L124.877229,13.6925161 C121.982836,13.1595892 119.546114,11.4009301 119.546114,8.07206736 C119.546114,3.03474884 123.957178,0.212552907 128.394148,0.212552907 C130.724106,0.212552907 132.864089,0.796455514 134.865121,2.07702499 L132.984983,7.07186382 C131.953458,6.34044085 130.39361,5.31088771 128.418483,5.24137549 C127.769267,5.21666004 126.279286,5.55263574 126.756582,7.03788007 C126.963044,7.67044123 127.88388,7.93613237 128.45067,8.07206736 L130.132196,8.47060406 C133.268377,9.19044167 135.539459,10.9467836 135.539459,14.5436546 C135.539459,19.6049162 131.100919,22.109673 126.694565,22.109673 C124.120463,22.109673 121.142858,21.3890631 118.840375,20.1648757 L118.840375,20.1648757 Z" id="Fill-1"></path>
                        <polygon id="Fill-3" points="109.690969 21.7920022 117.24528 21.7920022 117.24528 0.558337559 109.690969 0.558337559"></polygon>
                        <polygon id="Fill-5" points="101.174217 0.55795138 108.910653 0.55795138 101.007791 21.791616 94.7307192 21.791616 86.8537632 0.55795138 94.5635086 0.55795138 97.8700403 13.3713697"></polygon>
                        <path d="M79.7875826,6.68630274 L79.7875826,6.68630274 C79.9257473,7.59073389 81.2775629,14.0885813 81.2775629,14.0885813 L78.3078076,14.0885813 L79.7875826,6.68630274 Z M68.5287324,21.7920794 L76.3774274,21.7920794 L76.9748326,19.1251275 L82.5736417,19.1251275 L83.3178468,21.7920794 L91.171252,21.7920794 L83.8210488,0.557642437 L75.5869057,0.557642437 L68.5287324,21.7920794 Z" id="Fill-6"></path>
                        <path d="M49.1232695,0.55795138 L56.8597058,0.55795138 C63.764799,0.55795138 69.0401771,3.67673277 69.0401771,11.4821822 C69.0401771,17.7691758 64.7413719,21.791616 58.702163,21.791616 L49.1232695,21.7800307 L49.1232695,0.55795138 Z M56.7270363,15.6953948 L57.2341634,15.6953948 C59.7234825,15.6953948 61.5690798,14.2248252 61.5690798,11.4536049 C61.5690798,8.47075854 59.9330846,6.80632716 57.1996222,6.80632716 L56.7270363,6.80632716 L56.7270363,15.6953948 Z" id="Fill-7"></path>
                        <path d="M44.6055204,1.22395564 L45.009024,4.70883469 C45.1032272,5.53603005 45.5836635,7.52021761 44.9893984,7.25452648 C44.6196509,7.09078659 44.3134906,6.19098959 44.0112553,5.39159911 C43.8566051,4.98533883 43.1210353,3.06757405 42.9287038,2.92700491 C41.9984474,2.24269577 39.6794791,1.47111018 38.1109961,1.46415896 C33.3521654,1.44639473 30.2049941,4.8996071 30.2049941,11.0282674 C30.2049941,15.4237565 32.3441913,20.6958718 37.7844251,20.6958718 C39.7336459,20.6958718 43.468017,20.0926603 44.4830563,17.3623749 C44.9430818,16.1281469 45.363856,15.0298539 45.6676613,15.3642849 C45.8945339,15.6068053 45.600149,16.5961958 45.4643394,17.1291228 C44.8221877,19.6578227 44.7884316,20.4255465 44.5858948,20.5228636 C42.1279767,21.7393274 38.9745252,22.1378641 36.2151571,22.1378641 C27.4424858,22.1378641 24.4130685,17.1020903 24.4130685,12.0670888 C24.4130685,3.33017576 29.8682177,-0.350882215 38.3229532,0.0260284628 C40.4621505,0.104808973 42.6029178,0.479402577 44.6055204,1.22395564" id="Fill-8"></path>
                        <path d="M18.7012156,1.61090697 L17.2960181,1.12895561 C16.8257872,0.711109961 17.4004266,0.594483911 17.4004266,0.594483911 C17.4004266,0.594483911 19.4305052,0.965215725 24.488431,0.543508287 C24.488431,0.543508287 24.9272608,0.629240019 24.6242406,0.979890526 L22.9646946,1.67887447 C21.8837131,2.14306159 21.8837131,1.87737046 21.8837131,3.0428586 L21.8742927,13.8643658 C21.8742927,22.3270918 13.1243872,22.1378641 11.4208797,22.1378641 C10.6075922,22.1378641 2.58305123,22.1378641 2.58305123,15.3434312 L2.58305123,3.88859055 C2.58305123,1.8912729 2.80050358,1.94379324 2.1261658,1.71054114 L0.0968722716,0.960581577 C0.0968722716,0.960581577 -0.248539394,0.480947293 0.364566312,0.511841611 C2.02489738,0.594483911 4.42550846,0.94436206 10.0745592,0.543508287 C10.0745592,0.543508287 10.5659858,0.660906694 10.2425549,1.01078484 L8.55317786,1.4780614 C7.26808946,2.04497213 7.43765518,1.61090697 7.40311402,2.91001303 L7.44472042,14.205748 C7.44472042,16.9746512 8.89309434,20.4039205 13.4486032,20.4039205 C19.6503126,20.4039205 19.7084046,15.1256263 19.7084046,13.9531869 L19.72018,2.76326502 C19.7861222,1.71054114 19.6503126,2.01021603 18.7012156,1.61090697" id="Fill-9"></path>
                    </g>
                    <g id="caes-white" transform="translate(151.891506, 0.000000)">
                        <path d="M7.26877474,3.58072115 C7.15254438,3.42302885 7.01998414,3.28504808 6.87205459,3.16677885 C6.72364476,3.04850962 6.56418823,2.94899038 6.39368502,2.86822115 C6.22270152,2.78745192 6.04355307,2.72639423 5.85623968,2.68504808 C5.668446,2.64370192 5.47873116,2.62302885 5.28757545,2.62302885 C4.94224641,2.62302885 4.62717568,2.68504808 4.34188299,2.80908654 C4.05707058,2.93264423 3.81308288,3.10379808 3.61040019,3.32158654 C3.4077175,3.539375 3.25018214,3.79466346 3.13731382,4.08793269 C3.02492578,4.38072115 2.96873177,4.69610577 2.96873177,5.03408654 C2.96873177,5.37975962 3.02492578,5.69706731 3.13731382,5.98649038 C3.25018214,6.27543269 3.40963866,6.52447115 3.61616368,6.733125 C3.82220841,6.94129808 4.07003843,7.10475962 4.35869316,7.22302885 C4.64782819,7.34129808 4.9686624,7.40043269 5.3211958,7.40043269 C5.50514715,7.40043269 5.68813792,7.37879808 5.87016811,7.33600962 C6.0521983,7.29274038 6.22654384,7.23072115 6.39368502,7.14995192 C6.5603459,7.06918269 6.71836156,6.97254808 6.8662911,6.85956731 C7.01470094,6.74706731 7.14870206,6.61918269 7.26877474,6.47639423 L7.26877474,9.18649038 C7.08098106,9.24274038 6.90471436,9.29658654 6.73949435,9.34706731 C6.57475463,9.39802885 6.41337694,9.44081731 6.25584158,9.476875 C6.09782592,9.51245192 5.93932998,9.54033654 5.77987346,9.56100962 C5.62041693,9.58168269 5.45279546,9.59225962 5.27652876,9.59225962 C4.66848069,9.59225962 4.08588802,9.48120192 3.52875077,9.26004808 C2.97161351,9.03841346 2.46586736,8.72254808 2.01199262,8.31341346 C1.53170188,7.87783654 1.17868819,7.38264423 0.95391212,6.82879808 C0.728655764,6.27495192 0.615787441,5.67302885 0.615787441,5.02302885 C0.615787441,4.42591346 0.724813438,3.85283654 0.942385142,3.30475962 C1.15995685,2.75620192 1.4788699,2.26822115 1.89912429,1.83985577 C2.11333396,1.62206731 2.34771584,1.42591346 2.60275022,1.25091346 C2.85778461,1.07639423 3.12722771,0.927836538 3.41059925,0.806201923 C3.69397078,0.684086538 3.98742842,0.590817308 4.29145246,0.526875 C4.5954765,0.463413462 4.89902024,0.431201923 5.20304428,0.431201923 C5.56710466,0.431201923 5.9177169,0.469663462 6.25584158,0.546586538 C6.59348597,0.623990385 6.93113035,0.731682692 7.26877474,0.870625 L7.26877474,3.58072115 Z" id="Fill-11"></path>
                        <path d="M13.7815172,2.56658654 C13.4438728,2.56658654 13.1268809,2.62956731 12.8305415,2.75552885 C12.5337218,2.88100962 12.2738845,3.05024038 12.0505493,3.26225962 C11.8276944,3.47475962 11.6509474,3.71850962 11.5217492,3.99495192 C11.3920707,4.27091346 11.3277118,4.559375 11.3277118,4.85985577 C11.3277118,5.23533654 11.3920707,5.58149038 11.5217492,5.89927885 C11.6509474,6.21658654 11.8276944,6.490625 12.0505493,6.721875 C12.2738845,6.95264423 12.5337218,7.13293269 12.8305415,7.26274038 C13.1268809,7.39206731 13.4438728,7.45697115 13.7815172,7.45697115 C14.1191615,7.45697115 14.437114,7.39206731 14.7353746,7.26274038 C15.0336351,7.13293269 15.2934724,6.95264423 15.5148864,6.721875 C15.7363005,6.490625 15.9120869,6.21658654 16.0412851,5.89927885 C16.1709636,5.58149038 16.2353225,5.23533654 16.2353225,4.85985577 C16.2353225,4.559375 16.1709636,4.27091346 16.0412851,3.99495192 C15.9120869,3.71850962 15.7363005,3.47475962 15.5148864,3.26225962 C15.2934724,3.05024038 15.0336351,2.88100962 14.7353746,2.75552885 C14.437114,2.62956731 14.1191615,2.56658654 13.7815172,2.56658654 M13.7815172,0.374759615 C14.1979292,0.374759615 14.6061763,0.424759615 15.0057782,0.524278846 C15.4053801,0.623798077 15.7833689,0.765625 16.1397447,0.949759615 C16.4961204,1.13389423 16.8246393,1.35793269 17.124821,1.62283654 C17.4250027,1.88774038 17.6829188,2.18629808 17.8985694,2.51850962 C18.1142199,2.85120192 18.2832822,3.21274038 18.4052761,3.603125 C18.5272699,3.99399038 18.5882669,4.40889423 18.5882669,4.84831731 C18.5882669,5.55456731 18.4691548,6.20168269 18.2309305,6.78918269 C17.9927063,7.37716346 17.6593846,7.88245192 17.2319258,8.30504808 C16.8039868,8.72716346 16.2963195,9.05697115 15.7094042,9.29350962 C15.1220086,9.53004808 14.4793796,9.64831731 13.7815172,9.64831731 C13.3161154,9.64831731 12.8742479,9.59495192 12.4559147,9.48774038 C12.0375815,9.38100962 11.6509474,9.22764423 11.2964929,9.02860577 C10.9420383,8.82956731 10.6212041,8.58822115 10.3339902,8.30504808 C10.0472567,8.02139423 9.80326897,7.70120192 9.60250744,7.34447115 C9.40174591,6.98725962 9.24709229,6.59975962 9.1380663,6.18100962 C9.0290403,5.76177885 8.97476744,5.31802885 8.97476744,4.84831731 C8.97476744,4.40889423 9.03576437,3.99399038 9.15775822,3.603125 C9.27975206,3.21274038 9.44929469,2.85120192 9.66734669,2.51850962 C9.88491839,2.18629808 10.1428345,1.88774038 10.4410951,1.62283654 C10.7393556,1.35793269 11.0669139,1.13389423 11.4232896,0.949759615 C11.7796654,0.765625 12.1576542,0.623798077 12.5572561,0.524278846 C12.956858,0.424759615 13.3651051,0.374759615 13.7815172,0.374759615" id="Fill-12"></path>
                        <polygon id="Fill-13" points="22.7853355 7.44567308 25.4980176 7.44567308 25.4980176 9.36105769 20.5284493 9.36105769 20.5284493 0.6625 22.7853355 0.6625"></polygon>
                        <polygon id="Fill-14" points="29.7835558 7.44567308 32.4962379 7.44567308 32.4962379 9.36105769 27.5266696 9.36105769 27.5266696 0.6625 29.7835558 0.6625"></polygon>
                        <polygon id="Fill-15" points="36.7817761 2.57788462 36.7817761 4.03125 39.3316396 4.03125 39.3316396 5.94711538 36.7817761 5.94711538 36.7817761 7.44567308 39.4723648 7.44567308 39.4723648 9.36105769 34.5248899 9.36105769 34.5248899 0.6625 39.4723648 0.6625 39.4723648 2.57788462"></polygon>
                        <path d="M50.6021421,4.50471154 C50.5944574,4.82009615 50.5814896,5.12634615 50.5627582,5.42298077 C50.5440269,5.71961538 50.5036825,6.01 50.4417249,6.29365385 C50.3797674,6.57730769 50.2918742,6.85519231 50.1770848,7.12730769 C50.0627756,7.39942308 49.9081219,7.67105769 49.7126436,7.94125 C49.4989142,8.23836538 49.26069,8.49461538 48.997971,8.71048077 C48.735252,8.92634615 48.4518804,9.10375 48.1483367,9.24269231 C47.8443126,9.38211538 47.5234784,9.48403846 47.185834,9.54990385 C46.8481896,9.61576923 46.4970971,9.64846154 46.1330367,9.64846154 C45.4500633,9.64846154 44.8247248,9.53788462 44.2560605,9.31625 C43.6878766,9.09461538 43.1989406,8.78163462 42.7897329,8.37826923 C42.3810055,7.97442308 42.063053,7.49076923 41.8358755,6.92730769 C41.608698,6.36384615 41.4953494,5.74028846 41.4953494,5.05663462 C41.4953494,4.35086538 41.6096586,3.70951923 41.8387573,3.13259615 C42.0673756,2.55615385 42.3891704,2.06432692 42.8041416,1.65663462 C43.2186325,1.24942308 43.7147729,0.933557692 44.2925626,0.71 C44.8703524,0.486923077 45.5100997,0.374903846 46.2118044,0.374903846 C47.1051452,0.374903846 47.8875388,0.576826923 48.5589853,0.980673077 C49.230912,1.38451923 49.7539486,1.99365385 50.129536,2.80903846 L47.9850378,3.70471154 C47.9062701,3.49798077 47.80685,3.31048077 47.6867773,3.14125 C47.5667046,2.97201923 47.4279006,2.82682692 47.2703652,2.70471154 C47.1123496,2.58259615 46.9360829,2.48884615 46.7410848,2.42298077 C46.5460868,2.35711538 46.3337983,2.32442308 46.1051799,2.32442308 C45.7334348,2.32442308 45.4073174,2.40519231 45.1258671,2.56673077 C44.8444167,2.72826923 44.6085939,2.93932692 44.4193594,3.20038462 C44.2296445,3.46144231 44.0874785,3.75519231 43.9914203,4.08211538 C43.8958425,4.40903846 43.8478134,4.73740385 43.8478134,5.06817308 C43.8478134,5.40615385 43.8977636,5.73740385 43.9971838,6.06240385 C44.096604,6.38740385 44.2430927,6.67826923 44.4361696,6.93596154 C44.6292464,7.19317308 44.8693918,7.39942308 45.1566057,7.55567308 C45.4438195,7.71144231 45.7728187,7.78932692 46.1445637,7.78932692 C46.3885514,7.78932692 46.6162092,7.75759615 46.8284977,7.69365385 C47.0403059,7.62971154 47.2261785,7.535 47.385635,7.40903846 C47.5450915,7.28307692 47.6752503,7.12634615 47.7765916,6.93836538 C47.877933,6.75086538 47.9398905,6.53115385 47.9624642,6.27923077 L46.1162266,6.27923077 L46.1162266,4.50471154 L50.6021421,4.50471154 Z" id="Fill-16"></path>
                        <polygon id="Fill-17" points="54.7708735 2.57788462 54.7708735 4.03125 57.3207371 4.03125 57.3207371 5.94711538 54.7708735 5.94711538 54.7708735 7.44567308 57.4614623 7.44567308 57.4614623 9.36105769 52.5139874 9.36105769 52.5139874 0.6625 57.4614623 0.6625 57.4614623 2.57788462"></polygon>
                        <path d="M66.9418251,4.50985577 C66.7007191,4.50985577 66.4740219,4.55456731 66.262694,4.64447115 C66.0513661,4.73485577 65.8654935,4.85504808 65.7065173,5.00649038 C65.5470608,5.15841346 65.4207443,5.33245192 65.3285285,5.52956731 C65.2358324,5.72668269 65.1902048,5.93293269 65.1902048,6.146875 C65.1902048,6.415625 65.2358324,6.66274038 65.3285285,6.88918269 C65.4207443,7.11610577 65.5470608,7.31129808 65.7065173,7.47668269 C65.8654935,7.64158654 66.0513661,7.77043269 66.262694,7.86274038 C66.4740219,7.95552885 66.7007191,8.00168269 66.9418251,8.00168269 C67.182931,8.00168269 67.4101085,7.95552885 67.6228773,7.86274038 C67.8361264,7.77043269 68.0215187,7.64158654 68.1795343,7.47668269 C68.33755,7.31129808 68.4629058,7.11610577 68.5551217,6.88918269 C68.6478178,6.66274038 68.6939257,6.415625 68.6939257,6.146875 C68.6939257,5.93293269 68.6478178,5.72668269 68.5551217,5.52956731 C68.4629058,5.33245192 68.33755,5.15841346 68.1795343,5.00649038 C68.0215187,4.85504808 67.8361264,4.73485577 67.6228773,4.64447115 C67.4101085,4.55456731 67.182931,4.50985577 66.9418251,4.50985577 M66.9418251,2.94495192 C67.239125,2.94495192 67.5306615,2.98052885 67.8159542,3.05168269 C68.1012469,3.12235577 68.3711703,3.22379808 68.6257244,3.35552885 C68.8802785,3.48677885 69.1146604,3.646875 69.3293503,3.83629808 C69.5430797,4.02475962 69.7275114,4.23822115 69.8816847,4.47572115 C70.0353777,4.71322115 70.1559307,4.97139423 70.2433436,5.25024038 C70.3302762,5.52908654 70.3739827,5.82475962 70.3739827,6.13918269 C70.3739827,6.64302885 70.2889712,7.10504808 70.118468,7.52475962 C69.9484451,7.94447115 69.7111815,8.30552885 69.4052363,8.60697115 C69.0997714,8.90841346 68.7376321,9.14447115 68.3183383,9.31274038 C67.8990445,9.48197115 67.4403669,9.56658654 66.9418251,9.56658654 C66.6099442,9.56658654 66.2939129,9.528125 65.995172,9.45168269 C65.6964312,9.37524038 65.4207443,9.26658654 65.1676311,9.12379808 C64.9145179,8.98197115 64.6854192,8.809375 64.480335,8.60697115 C64.2752509,8.40456731 64.1013857,8.17620192 63.9577787,7.92091346 C63.8146521,7.66610577 63.7041852,7.38918269 63.6268584,7.090625 C63.5490513,6.79110577 63.5096675,6.47427885 63.5096675,6.13918269 C63.5096675,5.82475962 63.5533739,5.52908654 63.6407868,5.25024038 C63.7277195,4.97139423 63.849233,4.71322115 64.0043669,4.47572115 C64.1595008,4.23822115 64.3439325,4.02475962 64.5567013,3.83629808 C64.7699504,3.646875 65.0033717,3.48677885 65.2579258,3.35552885 C65.5124798,3.22379808 65.7824032,3.12235577 66.0681762,3.05168269 C66.3529886,2.98052885 66.6445251,2.94495192 66.9418251,2.94495192" id="Fill-18"></path>
                        <polygon id="Fill-19" points="73.0561663 4.51783654 73.0561663 5.55533654 74.8284391 5.55533654 74.8284391 6.92360577 73.0561663 6.92360577 73.0561663 9.36110577 71.4447909 9.36110577 71.4447909 3.15004808 75.0090285 3.15004808 75.0090285 4.51783654"></polygon>
                        <path d="M84.5043283,3.34971154 L84.4817547,3.34971154 L83.5475892,6.12182692 L85.4274471,6.12182692 L84.5043283,3.34971154 Z M82.9227309,7.85115385 L82.3262098,9.36125 L79.9285985,9.36125 L83.2719023,0.662211538 L85.7367544,0.662211538 L89.0128175,9.36125 L86.6036791,9.36125 L86.0354952,7.85115385 L82.9227309,7.85115385 Z" id="Fill-20"></path>
                        <path d="M99.3811898,4.50471154 C99.3735052,4.82009615 99.3605373,5.12634615 99.341806,5.42298077 C99.3230747,5.71961538 99.2827302,6.01 99.2207727,6.29365385 C99.1588152,6.57730769 99.070922,6.85519231 98.9561325,7.12730769 C98.8418233,7.39942308 98.6871697,7.67105769 98.4916914,7.94125 C98.277962,8.23836538 98.0397378,8.49461538 97.7770188,8.71048077 C97.5142997,8.92634615 97.2309282,9.10375 96.9273845,9.24269231 C96.6233604,9.38211538 96.3025262,9.48403846 95.9648818,9.54990385 C95.6272374,9.61576923 95.2761449,9.64846154 94.9120845,9.64846154 C94.2291111,9.64846154 93.6037726,9.53788462 93.0351083,9.31625 C92.4669244,9.09461538 91.9779884,8.78163462 91.5687807,8.37826923 C91.1600533,7.97442308 90.8421008,7.49076923 90.6149233,6.92730769 C90.3877458,6.36384615 90.2743972,5.74028846 90.2743972,5.05663462 C90.2743972,4.35086538 90.3887064,3.70951923 90.617805,3.13259615 C90.8464234,2.55615385 91.1682182,2.06432692 91.5831894,1.65663462 C91.9976803,1.24942308 92.4938207,0.933557692 93.0716104,0.71 C93.6494002,0.486923077 94.2891474,0.374903846 94.9908522,0.374903846 C95.884193,0.374903846 96.6665866,0.576826923 97.338033,0.980673077 C98.0099598,1.38451923 98.5329964,1.99365385 98.9085838,2.80903846 L96.7640856,3.70471154 C96.6853179,3.49798077 96.5858977,3.31048077 96.4658251,3.14125 C96.3457524,2.97201923 96.2069484,2.82682692 96.049413,2.70471154 C95.8913973,2.58259615 95.7151306,2.48884615 95.5201326,2.42298077 C95.3251346,2.35711538 95.1128461,2.32442308 94.8842277,2.32442308 C94.5124826,2.32442308 94.1863652,2.40519231 93.9049148,2.56673077 C93.6234645,2.72826923 93.3876417,2.93932692 93.1984072,3.20038462 C93.0086923,3.46144231 92.8665263,3.75519231 92.7704681,4.08211538 C92.6748903,4.40903846 92.6268612,4.73740385 92.6268612,5.06817308 C92.6268612,5.40615385 92.6768114,5.73740385 92.7762316,6.06240385 C92.8756518,6.38740385 93.0221405,6.67826923 93.2152173,6.93596154 C93.4082942,7.19317308 93.6484396,7.39942308 93.9356535,7.55567308 C94.2228673,7.71144231 94.5518665,7.78932692 94.9236115,7.78932692 C95.1675992,7.78932692 95.395257,7.75759615 95.6075455,7.69365385 C95.8193537,7.62971154 96.0052262,7.535 96.1646828,7.40903846 C96.3241393,7.28307692 96.4542981,7.12634615 96.5556394,6.93836538 C96.6569808,6.75086538 96.7189383,6.53115385 96.7415119,6.27923077 L94.8952744,6.27923077 L94.8952744,4.50471154 L99.3811898,4.50471154 Z" id="Fill-21"></path>
                        <path d="M104.011,4.56105769 L104.230493,4.56105769 C104.414445,4.56105769 104.600317,4.54903846 104.787631,4.52451923 C104.975424,4.5 105.144006,4.44951923 105.294337,4.37211538 C105.444188,4.29519231 105.566182,4.18653846 105.660319,4.04567308 C105.753976,3.90480769 105.801044,3.71586538 105.801044,3.47932692 C105.801044,3.24278846 105.753976,3.05288462 105.660319,2.91009615 C105.566182,2.76778846 105.444188,2.65769231 105.294337,2.58076923 C105.144006,2.50384615 104.975424,2.45288462 104.787631,2.42836538 C104.600317,2.40432692 104.414445,2.39182692 104.230493,2.39182692 L104.011,2.39182692 L104.011,4.56105769 Z M108.981049,9.36105769 L106.166545,9.36105769 L104.039338,6.01442308 L104.011,6.01442308 L104.011,9.36105769 L101.754114,9.36105769 L101.754114,0.6625 L105.131038,0.6625 C105.558977,0.6625 105.957619,0.714903846 106.326962,0.820192308 C106.696786,0.925480769 107.01666,1.08653846 107.286583,1.30480769 C107.556987,1.52259615 107.768795,1.79951923 107.922969,2.13557692 C108.076662,2.47163462 108.153508,2.87259615 108.153508,3.33846154 C108.153508,3.63894231 108.112203,3.92548077 108.029593,4.19759615 C107.946983,4.47019231 107.824989,4.71490385 107.663612,4.93269231 C107.502714,5.15096154 107.303393,5.33461538 107.06709,5.48509615 C106.830787,5.63509615 106.558943,5.73846154 106.251076,5.79471154 L108.981049,9.36105769 Z" id="Fill-22"></path>
                        <polygon id="Fill-23" points="110.943037 9.36105769 113.199923 9.36105769 113.199923 0.662019231 110.943037 0.662019231"></polygon>
                        <path d="M122.012057,3.58072115 C121.895827,3.42302885 121.763267,3.28504808 121.615337,3.16677885 C121.466927,3.04850962 121.307471,2.94899038 121.136967,2.86822115 C120.965984,2.78745192 120.786835,2.72639423 120.599522,2.68504808 C120.411728,2.64370192 120.222014,2.62302885 120.030858,2.62302885 C119.685529,2.62302885 119.370458,2.68504808 119.085165,2.80908654 C118.800353,2.93264423 118.556365,3.10379808 118.353683,3.32158654 C118.151,3.539375 117.993465,3.79466346 117.880596,4.08793269 C117.768208,4.38072115 117.712014,4.69610577 117.712014,5.03408654 C117.712014,5.37975962 117.768208,5.69706731 117.880596,5.98649038 C117.993465,6.27543269 118.152921,6.52447115 118.359446,6.733125 C118.565491,6.94129808 118.813321,7.10475962 119.101976,7.22302885 C119.391111,7.34129808 119.711945,7.40043269 120.064478,7.40043269 C120.24843,7.40043269 120.43142,7.37879808 120.613451,7.33600962 C120.795481,7.29274038 120.969826,7.23072115 121.136967,7.14995192 C121.303628,7.06918269 121.461644,6.97254808 121.609574,6.85956731 C121.757983,6.74706731 121.891984,6.61918269 122.012057,6.47639423 L122.012057,9.18649038 C121.824263,9.24274038 121.647997,9.29658654 121.482777,9.34706731 C121.318037,9.39802885 121.156659,9.44081731 120.999124,9.476875 C120.841108,9.51245192 120.682612,9.54033654 120.523156,9.56100962 C120.363699,9.58168269 120.196078,9.59225962 120.019811,9.59225962 C119.411763,9.59225962 118.82917,9.48120192 118.272033,9.26004808 C117.714896,9.03841346 117.20915,8.72254808 116.755275,8.31341346 C116.274984,7.87783654 115.921971,7.38264423 115.697195,6.82879808 C115.471938,6.27495192 115.35907,5.67302885 115.35907,5.02302885 C115.35907,4.42591346 115.468096,3.85283654 115.685668,3.30475962 C115.903239,2.75620192 116.222152,2.26822115 116.642407,1.83985577 C116.856616,1.62206731 117.090998,1.42591346 117.346033,1.25091346 C117.601067,1.07639423 117.87051,0.927836538 118.153882,0.806201923 C118.437253,0.684086538 118.730711,0.590817308 119.034735,0.526875 C119.338759,0.463413462 119.642303,0.431201923 119.946327,0.431201923 C120.310387,0.431201923 120.660999,0.469663462 120.999124,0.546586538 C121.336768,0.623990385 121.674413,0.731682692 122.012057,0.870625 L122.012057,3.58072115 Z" id="Fill-24"></path>
                        <path d="M132.246861,0.662307692 L132.246861,5.55269231 C132.246861,5.83442308 132.240137,6.11230769 132.227169,6.38634615 C132.214201,6.66086538 132.177219,6.92817308 132.117182,7.18923077 C132.057146,7.45028846 131.966371,7.70221154 131.844377,7.94403846 C131.722383,8.18634615 131.554762,8.41278846 131.340552,8.62336538 C131.160443,8.80365385 130.955839,8.95461538 130.727221,9.07673077 C130.498122,9.19884615 130.257977,9.29836538 130.006785,9.37528846 C129.755593,9.45221154 129.497196,9.5075 129.233036,9.54163462 C128.968396,9.57528846 128.71048,9.59211538 128.458808,9.59211538 C128.203773,9.59211538 127.943936,9.57528846 127.679296,9.54163462 C127.414656,9.5075 127.1577,9.45221154 126.908429,9.37528846 C126.658678,9.29836538 126.419493,9.19884615 126.190875,9.07673077 C125.961776,8.95461538 125.757172,8.80365385 125.577063,8.62336538 C125.359491,8.41278846 125.189949,8.18634615 125.067955,7.94403846 C124.945961,7.70221154 124.854706,7.45028846 124.79467,7.18923077 C124.734633,6.92817308 124.698131,6.66086538 124.685163,6.38634615 C124.672195,6.11230769 124.665471,5.83442308 124.665471,5.55269231 L124.665471,0.662307692 L126.922358,0.662307692 L126.922358,5.24259615 C126.922358,5.43057692 126.92716,5.62048077 126.936286,5.81182692 C126.945892,6.00317308 126.966544,6.18634615 126.998243,6.36134615 C127.030423,6.53586538 127.078932,6.69932692 127.144732,6.85125 C127.210532,7.00317308 127.300346,7.13586538 127.414656,7.24836538 C127.529445,7.36134615 127.671131,7.44932692 127.839713,7.51326923 C128.008775,7.57721154 128.21482,7.60894231 128.458808,7.60894231 C128.698953,7.60894231 128.904517,7.57721154 129.075021,7.51326923 C129.246004,7.44932692 129.38769,7.36134615 129.500078,7.24836538 C129.612946,7.13586538 129.7018,7.00317308 129.7676,6.85125 C129.8334,6.69932692 129.88287,6.53586538 129.91649,6.36134615 C129.950591,6.18634615 129.971243,6.00317308 129.978448,5.81182692 C129.986132,5.62048077 129.989974,5.43057692 129.989974,5.24259615 L129.989974,0.662307692 L132.246861,0.662307692 Z" id="Fill-25"></path>
                        <polygon id="Fill-26" points="137.29366 7.44567308 140.006342 7.44567308 140.006342 9.36105769 135.036774 9.36105769 135.036774 0.6625 137.29366 0.6625"></polygon>
                        <polygon id="Fill-27" points="144.879804 9.36120192 142.622918 9.36120192 142.622918 2.57802885 140.754106 2.57802885 140.754106 0.662163462 146.748615 0.662163462 146.748615 2.57802885 144.879804 2.57802885"></polygon>
                        <path d="M156.363171,0.662307692 L156.363171,5.55269231 C156.363171,5.83442308 156.356447,6.11230769 156.343479,6.38634615 C156.330511,6.66086538 156.293529,6.92817308 156.233493,7.18923077 C156.173456,7.45028846 156.082681,7.70221154 155.960688,7.94403846 C155.838694,8.18634615 155.671072,8.41278846 155.456863,8.62336538 C155.276754,8.80365385 155.07215,8.95461538 154.843531,9.07673077 C154.614433,9.19884615 154.374287,9.29836538 154.123095,9.37528846 C153.871903,9.45221154 153.613507,9.5075 153.349347,9.54163462 C153.084707,9.57528846 152.82679,9.59211538 152.575118,9.59211538 C152.320084,9.59211538 152.060246,9.57528846 151.795606,9.54163462 C151.530966,9.5075 151.274011,9.45221154 151.02474,9.37528846 C150.774988,9.29836538 150.535804,9.19884615 150.307185,9.07673077 C150.078087,8.95461538 149.873483,8.80365385 149.693374,8.62336538 C149.475802,8.41278846 149.306259,8.18634615 149.184266,7.94403846 C149.062272,7.70221154 148.971016,7.45028846 148.91098,7.18923077 C148.850944,6.92817308 148.814442,6.66086538 148.801474,6.38634615 C148.788506,6.11230769 148.781782,5.83442308 148.781782,5.55269231 L148.781782,0.662307692 L151.038668,0.662307692 L151.038668,5.24259615 C151.038668,5.43057692 151.043471,5.62048077 151.052596,5.81182692 C151.062202,6.00317308 151.082855,6.18634615 151.114554,6.36134615 C151.146733,6.53586538 151.195243,6.69932692 151.261043,6.85125 C151.326842,7.00317308 151.416657,7.13586538 151.530966,7.24836538 C151.645756,7.36134615 151.787441,7.44932692 151.956023,7.51326923 C152.125086,7.57721154 152.33113,7.60894231 152.575118,7.60894231 C152.815263,7.60894231 153.020828,7.57721154 153.191331,7.51326923 C153.362315,7.44932692 153.504,7.36134615 153.616388,7.24836538 C153.729257,7.13586538 153.818111,7.00317308 153.88391,6.85125 C153.94971,6.69932692 153.99918,6.53586538 154.032801,6.36134615 C154.066901,6.18634615 154.087554,6.00317308 154.094758,5.81182692 C154.102443,5.62048077 154.106285,5.43057692 154.106285,5.24259615 L154.106285,0.662307692 L156.363171,0.662307692 Z" id="Fill-28"></path>
                        <path d="M161.40997,4.56105769 L161.629463,4.56105769 C161.813414,4.56105769 161.999287,4.54903846 162.1866,4.52451923 C162.374394,4.5 162.542976,4.44951923 162.693307,4.37211538 C162.843158,4.29519231 162.965152,4.18653846 163.059289,4.04567308 C163.152945,3.90480769 163.200014,3.71586538 163.200014,3.47932692 C163.200014,3.24278846 163.152945,3.05288462 163.059289,2.91009615 C162.965152,2.76778846 162.843158,2.65769231 162.693307,2.58076923 C162.542976,2.50384615 162.374394,2.45288462 162.1866,2.42836538 C161.999287,2.40432692 161.813414,2.39182692 161.629463,2.39182692 L161.40997,2.39182692 L161.40997,4.56105769 Z M166.380019,9.36105769 L163.565515,9.36105769 L161.438307,6.01442308 L161.40997,6.01442308 L161.40997,9.36105769 L159.153084,9.36105769 L159.153084,0.6625 L162.530008,0.6625 C162.957947,0.6625 163.356589,0.714903846 163.725932,0.820192308 C164.095756,0.925480769 164.41563,1.08653846 164.685553,1.30480769 C164.955957,1.52259615 165.167765,1.79951923 165.321938,2.13557692 C165.475631,2.47163462 165.552478,2.87259615 165.552478,3.33846154 C165.552478,3.63894231 165.511173,3.92548077 165.428563,4.19759615 C165.345953,4.47019231 165.223959,4.71490385 165.062581,4.93269231 C164.901684,5.15096154 164.702363,5.33461538 164.46606,5.48509615 C164.229757,5.63509615 163.957913,5.73846154 163.650046,5.79471154 L166.380019,9.36105769 Z" id="Fill-29"></path>
                        <path d="M172.5275,3.34971154 L172.504926,3.34971154 L171.570761,6.12182692 L173.450619,6.12182692 L172.5275,3.34971154 Z M170.945903,7.85115385 L170.349382,9.36125 L167.95177,9.36125 L171.295074,0.662211538 L173.759926,0.662211538 L177.035989,9.36125 L174.626851,9.36125 L174.058667,7.85115385 L170.945903,7.85115385 Z" id="Fill-30"></path>
                        <polygon id="Fill-31" points="181.293238 7.44567308 184.00592 7.44567308 184.00592 9.36105769 179.036352 9.36105769 179.036352 0.6625 181.293238 0.6625"></polygon>
                        <path d="M3.55262122,18.5305769 L3.53677162,18.5305769 L2.86964779,20.5099038 L4.2120604,20.5099038 L3.55262122,18.5305769 Z M2.42345769,21.745 L1.99743981,22.8228846 L0.285683616,22.8228846 L2.67272858,16.6118269 L4.43299414,16.6118269 L6.77152974,22.8228846 L5.05160861,22.8228846 L4.64576294,21.745 L2.42345769,21.745 Z" id="Fill-32"></path>
                        <polygon id="Fill-33" points="7.56050334 16.6117308 9.17187876 16.6117308 12.1295091 20.4088462 12.145839 20.4088462 12.145839 16.6117308 13.7572144 16.6117308 13.7572144 22.8227885 12.145839 22.8227885 9.19205097 19.0170192 9.17187876 19.0170192 9.17187876 22.8227885 7.56050334 22.8227885"></polygon>
                        <path d="M16.7549971,21.4550962 L17.1209787,21.4550962 C17.3620846,21.4550962 17.5902227,21.4219231 17.8058732,21.3541346 C18.0215238,21.2873077 18.210278,21.1829808 18.3726163,21.0406731 C18.5349546,20.8988462 18.6641528,20.7185577 18.7602109,20.4998077 C18.8567494,20.2810577 18.9052587,20.0204808 18.9052587,19.7175962 C18.9052587,19.43875 18.8615523,19.1906731 18.7746197,18.9748077 C18.6872067,18.7594231 18.5656932,18.5776923 18.4086381,18.4300962 C18.2520633,18.2825 18.0657105,18.1704808 17.85006,18.0940385 C17.6344095,18.0180769 17.3966655,17.9796154 17.1368282,17.9796154 L16.7549971,17.9796154 L16.7549971,21.4550962 Z M15.1436217,16.6118269 L17.4302859,16.6118269 C17.7165392,16.6118269 17.9941472,16.6478846 18.2621494,16.72 C18.5301517,16.7925962 18.7813437,16.8954808 19.0157256,17.0281731 C19.2501075,17.1603846 19.4638369,17.3209615 19.6569137,17.5089423 C19.8495103,17.6969231 20.0142501,17.9055769 20.1506526,18.1363462 C20.2875355,18.3671154 20.39416,18.6161538 20.4705263,18.8825 C20.5468925,19.1493269 20.5848355,19.4272115 20.5848355,19.7175962 C20.5848355,20.0065385 20.5468925,20.2849038 20.4705263,20.5522115 C20.39416,20.8190385 20.2870552,21.0675962 20.1487315,21.2978846 C20.010888,21.5286538 19.845668,21.7382692 19.6525911,21.9257692 C19.4595143,22.1132692 19.2467455,22.2733654 19.0138045,22.4065385 C18.7803832,22.5392308 18.5301517,22.6416346 18.2621494,22.71375 C17.9941472,22.7868269 17.7165392,22.8228846 17.4302859,22.8228846 L15.1436217,22.8228846 L15.1436217,16.6118269 Z" id="Fill-34"></path>
                        <polygon id="Fill-35" points="28.3947471 16.0394231 28.3947471 17.4927885 30.9446106 17.4927885 30.9446106 19.4086538 28.3947471 19.4086538 28.3947471 20.9072115 31.0853358 20.9072115 31.0853358 22.8225962 26.1378609 22.8225962 26.1378609 14.1240385 31.0853358 14.1240385 31.0853358 16.0394231"></polygon>
                        <polygon id="Fill-36" points="33.6212229 14.1238462 35.878109 14.1238462 40.0206167 19.4425962 40.0431903 19.4425962 40.0431903 14.1238462 42.3000765 14.1238462 42.3000765 22.8228846 40.0431903 22.8228846 35.9064462 17.4930769 35.878109 17.4930769 35.878109 22.8228846 33.6212229 22.8228846"></polygon>
                        <polygon id="Fill-37" points="48.520562 19.4085577 50.6314398 14.1239423 53.0852452 14.1239423 49.3759598 22.8229808 47.6200169 22.8229808 43.9674058 14.1239423 46.4269747 14.1239423"></polygon>
                        <polygon id="Fill-38" points="54.7581458 22.8225962 57.015032 22.8225962 57.015032 14.1235577 54.7581458 14.1235577"></polygon>
                        <path d="M61.8828267,18.0225962 L62.1023195,18.0225962 C62.2862709,18.0225962 62.4721434,18.0105769 62.6594568,17.9860577 C62.8472505,17.9615385 63.0158325,17.9110577 63.1661635,17.8336538 C63.3160142,17.7567308 63.4380081,17.6480769 63.5321451,17.5072115 C63.6258018,17.3663462 63.6728703,17.1774038 63.6728703,16.9408654 C63.6728703,16.7043269 63.6258018,16.5144231 63.5321451,16.3716346 C63.4380081,16.2293269 63.3160142,16.1192308 63.1661635,16.0423077 C63.0158325,15.9653846 62.8472505,15.9144231 62.6594568,15.8899038 C62.4721434,15.8658654 62.2862709,15.8533654 62.1023195,15.8533654 L61.8828267,15.8533654 L61.8828267,18.0225962 Z M66.8528752,22.8225962 L64.0383715,22.8225962 L61.9111638,19.4759615 L61.8828267,19.4759615 L61.8828267,22.8225962 L59.6259405,22.8225962 L59.6259405,14.1240385 L63.0028647,14.1240385 C63.4308037,14.1240385 63.829445,14.1764423 64.1987886,14.2817308 C64.5686125,14.3870192 64.8884861,14.5480769 65.1584095,14.7663462 C65.4288132,14.9841346 65.6406214,15.2610577 65.7947947,15.5971154 C65.9484878,15.9331731 66.0253343,16.3341346 66.0253343,16.8 C66.0253343,17.1004808 65.9840293,17.3870192 65.9014193,17.6591346 C65.8188093,17.9317308 65.6968154,18.1764423 65.5354377,18.3942308 C65.3745403,18.6125 65.1752197,18.7961538 64.9389166,18.9466346 C64.7026136,19.0966346 64.430769,19.2 64.1229027,19.25625 L66.8528752,22.8225962 Z" id="Fill-39"></path>
                        <path d="M72.7391264,16.028125 C72.401482,16.028125 72.0844901,16.0911058 71.7881507,16.2170673 C71.4913311,16.3425481 71.2314938,16.5117788 71.0081586,16.7237981 C70.7853037,16.9362981 70.6085567,17.1800481 70.4793585,17.4564904 C70.34968,17.7324519 70.285321,18.0209135 70.285321,18.3213942 C70.285321,18.696875 70.34968,19.0430288 70.4793585,19.3608173 C70.6085567,19.678125 70.7853037,19.9521635 71.0081586,20.1834135 C71.2314938,20.4141827 71.4913311,20.5944712 71.7881507,20.7242788 C72.0844901,20.8536058 72.401482,20.9185096 72.7391264,20.9185096 C73.0767708,20.9185096 73.3947233,20.8536058 73.6929838,20.7242788 C73.9912444,20.5944712 74.2510816,20.4141827 74.4724957,20.1834135 C74.6939097,19.9521635 74.8696961,19.678125 74.9988943,19.3608173 C75.1285728,19.0430288 75.1929318,18.696875 75.1929318,18.3213942 C75.1929318,18.0209135 75.1285728,17.7324519 74.9988943,17.4564904 C74.8696961,17.1800481 74.6939097,16.9362981 74.4724957,16.7237981 C74.2510816,16.5117788 73.9912444,16.3425481 73.6929838,16.2170673 C73.3947233,16.0911058 73.0767708,16.028125 72.7391264,16.028125 M72.7391264,13.8362981 C73.1555385,13.8362981 73.5637856,13.8862981 73.9633875,13.9858173 C74.3629894,14.0853365 74.7409782,14.2271635 75.0973539,14.4112981 C75.4537297,14.5954327 75.7822485,14.8194712 76.0824302,15.084375 C76.3826119,15.3492788 76.6405281,15.6478365 76.8561786,15.9800481 C77.0718292,16.3127404 77.2408915,16.6742788 77.3628853,17.0646635 C77.4848792,17.4555288 77.5458761,17.8704327 77.5458761,18.3098558 C77.5458761,19.0161058 77.426764,19.6632212 77.1885398,20.2507212 C76.9503156,20.8387019 76.6169938,21.3439904 76.1895351,21.7665865 C75.761596,22.1887019 75.2539287,22.5185096 74.6670134,22.7550481 C74.0796179,22.9915865 73.4369888,23.1098558 72.7391264,23.1098558 C72.2737247,23.1098558 71.8318572,23.0564904 71.413524,22.9492788 C70.9951907,22.8425481 70.6085567,22.6891827 70.2541021,22.4901442 C69.8996476,22.2911058 69.5788133,22.0497596 69.2915995,21.7665865 C69.0048659,21.4829327 68.7608782,21.1627404 68.5601167,20.8060096 C68.3593552,20.4487981 68.2047015,20.0612981 68.0956755,19.6425481 C67.9866496,19.2233173 67.9323767,18.7795673 67.9323767,18.3098558 C67.9323767,17.8704327 67.9933736,17.4555288 68.1153675,17.0646635 C68.2373613,16.6742788 68.4069039,16.3127404 68.6249559,15.9800481 C68.8425276,15.6478365 69.1004438,15.3492788 69.3987043,15.084375 C69.6969649,14.8194712 70.0245232,14.5954327 70.3808989,14.4112981 C70.7372746,14.2271635 71.1152634,14.0853365 71.5148653,13.9858173 C71.9144672,13.8862981 72.3227143,13.8362981 72.7391264,13.8362981" id="Fill-40"></path>
                        <polygon id="Fill-41" points="79.9467535 14.1238462 82.2036396 14.1238462 86.3461472 19.4425962 86.3687209 19.4425962 86.3687209 14.1238462 88.6256071 14.1238462 88.6256071 22.8228846 86.3687209 22.8228846 82.2319768 17.4930769 82.2036396 17.4930769 82.2036396 22.8228846 79.9467535 22.8228846"></polygon>
                        <polygon id="Fill-42" points="92.1683757 14.1238462 94.3916415 14.1238462 96.1591114 18.7719231 98.0221592 14.1238462 100.273282 14.1238462 101.584476 22.8228846 99.3275894 22.8228846 98.6916845 17.8142308 98.6691108 17.8142308 96.581287 22.8228846 95.686025 22.8228846 93.6880156 17.8142308 93.6654419 17.8142308 92.9392423 22.8228846 90.6938831 22.8228846"></polygon>
                        <polygon id="Fill-43" points="105.939656 16.0394231 105.939656 17.4927885 108.489519 17.4927885 108.489519 19.4086538 105.939656 19.4086538 105.939656 20.9072115 108.630245 20.9072115 108.630245 22.8225962 103.68277 22.8225962 103.68277 14.1240385 108.630245 14.1240385 108.630245 16.0394231"></polygon>
                        <polygon id="Fill-44" points="111.166132 14.1238462 113.423018 14.1238462 117.565526 19.4425962 117.588099 19.4425962 117.588099 14.1238462 119.844985 14.1238462 119.844985 22.8228846 117.588099 22.8228846 113.451355 17.4930769 113.423018 17.4930769 113.423018 22.8228846 111.166132 22.8228846"></polygon>
                        <polygon id="Fill-45" points="125.792474 22.8227404 123.535587 22.8227404 123.535587 16.0395673 121.666776 16.0395673 121.666776 14.1237019 127.661285 14.1237019 127.661285 16.0395673 125.792474 16.0395673"></polygon>
                        <path d="M132.727151,16.81125 L132.704578,16.81125 L131.770412,19.5833654 L133.65027,19.5833654 L132.727151,16.81125 Z M131.145554,21.3126923 L130.549033,22.8227885 L128.151422,22.8227885 L131.494725,14.12375 L133.959577,14.12375 L137.235641,22.8227885 L134.826502,22.8227885 L134.258318,21.3126923 L131.145554,21.3126923 Z" id="Fill-46"></path>
                        <polygon id="Fill-47" points="141.49289 20.9072115 144.205572 20.9072115 144.205572 22.8225962 139.236003 22.8225962 139.236003 14.1240385 141.49289 14.1240385"></polygon>
                        <path d="M155.972455,16.3605288 C155.762568,16.1879327 155.529627,16.0489904 155.274592,15.9437019 C155.019558,15.8384135 154.752996,15.7860096 154.475388,15.7860096 C154.370205,15.7860096 154.261179,15.8009135 154.148791,15.8307212 C154.036403,15.8610096 153.93218,15.9062019 153.836602,15.9662981 C153.741024,16.0263942 153.661776,16.1023558 153.600299,16.1941827 C153.538341,16.2864904 153.507122,16.3922596 153.507122,16.5124519 C153.507122,16.6403365 153.541223,16.7494712 153.608464,16.839375 C153.676185,16.9297596 153.760716,17.0066827 153.861577,17.070625 C153.962918,17.1340865 154.071944,17.1879327 154.188175,17.2312019 C154.304405,17.2739904 154.41151,17.3110096 154.509009,17.3408173 L155.082956,17.5153365 C155.38698,17.6057212 155.669391,17.7134135 155.930189,17.839375 C156.190987,17.9653365 156.417204,18.1220673 156.60836,18.3100481 C156.799996,18.4975481 156.950807,18.7201442 157.061754,18.9773558 C157.172221,19.2350481 157.227454,19.5398558 157.227454,19.8932212 C157.227454,20.1071635 157.213526,20.3220673 157.185189,20.5379327 C157.157332,20.7542788 157.108342,20.9634135 157.03918,21.1662981 C156.969538,21.3691827 156.876842,21.5614904 156.760612,21.7437019 C156.643901,21.9259135 156.499814,22.0903365 156.326909,22.2369712 C155.985423,22.5259135 155.600229,22.7345673 155.170369,22.8619712 C154.740989,22.9898558 154.304405,23.0537981 153.861577,23.0537981 C153.314045,23.0537981 152.779482,22.9662981 152.257886,22.7917788 C151.73629,22.6172596 151.252157,22.3739904 150.805487,22.0619712 L151.773753,20.2369712 C151.916399,20.3605288 152.064329,20.4773558 152.218502,20.5860096 C152.372195,20.6951442 152.533573,20.7908173 152.702155,20.8735096 C152.871217,20.9562019 153.045563,21.020625 153.225672,21.0677404 C153.405781,21.1148558 153.591653,21.1384135 153.782809,21.1384135 C153.914409,21.1384135 154.045528,21.1211058 154.177128,21.0874519 C154.308247,21.0537981 154.425438,21.0009135 154.528701,20.9297596 C154.631963,20.858125 154.715534,20.7672596 154.779412,20.6566827 C154.842811,20.545625 154.87499,20.4134135 154.87499,20.2590865 C154.87499,20.1013942 154.826001,19.9682212 154.728502,19.8590865 C154.631003,19.7504327 154.511891,19.6571635 154.371165,19.5802404 C154.23044,19.5033173 154.08107,19.4403365 153.923534,19.3917788 C153.765999,19.3427404 153.627195,19.3013942 153.507122,19.2677404 C153.150747,19.1662981 152.827991,19.0610096 152.539336,18.9523558 C152.250201,18.8432212 152.003332,18.6994712 151.799208,18.5211058 C151.594605,18.3427404 151.436109,18.1182212 151.32324,17.8480288 C151.210852,17.5773558 151.154658,17.2316827 151.154658,16.8110096 C151.154658,16.3715865 151.228623,15.9715865 151.377033,15.6110096 C151.524962,15.2504327 151.732448,14.9437019 151.999009,14.6898558 C152.26509,14.4364904 152.581122,14.2403365 152.947103,14.1013942 C153.313085,13.9624519 153.713647,13.8927404 154.148791,13.8927404 C154.366362,13.8927404 154.595461,13.9095673 154.835606,13.9437019 C155.075752,13.9773558 155.313976,14.0254327 155.550279,14.0869712 C155.786582,14.1489904 156.017602,14.2244712 156.242378,14.3124519 C156.467634,14.4009135 156.678002,14.4994712 156.873,14.608125 L155.972455,16.3605288 Z" id="Fill-48"></path>
                        <path d="M165.577789,17.0422596 C165.461559,16.8845673 165.328999,16.7465865 165.181069,16.6283173 C165.032659,16.5100481 164.873203,16.4105288 164.702699,16.3297596 C164.531716,16.2489904 164.352567,16.1879327 164.165254,16.1465865 C163.97746,16.1052404 163.787746,16.0845673 163.59659,16.0845673 C163.251261,16.0845673 162.93619,16.1465865 162.650897,16.270625 C162.366085,16.3941827 162.122097,16.5653365 161.919415,16.783125 C161.716732,17.0009135 161.559197,17.2562019 161.446328,17.5494712 C161.33394,17.8422596 161.277746,18.1576442 161.277746,18.495625 C161.277746,18.8412981 161.33394,19.1586058 161.446328,19.4480288 C161.559197,19.7369712 161.718653,19.9860096 161.925178,20.1946635 C162.131223,20.4028365 162.379053,20.5662981 162.667708,20.6845673 C162.956843,20.8028365 163.277677,20.8619712 163.63021,20.8619712 C163.814162,20.8619712 163.997152,20.8403365 164.179183,20.7975481 C164.361213,20.7542788 164.535558,20.6922596 164.702699,20.6114904 C164.86936,20.5307212 165.027376,20.4340865 165.175305,20.3211058 C165.323715,20.2086058 165.457716,20.0807212 165.577789,19.9379327 L165.577789,22.6480288 C165.389995,22.7042788 165.213729,22.758125 165.048509,22.8086058 C164.883769,22.8595673 164.722391,22.9023558 164.564856,22.9384135 C164.40684,22.9739904 164.248344,23.001875 164.088888,23.0225481 C163.929431,23.0432212 163.76181,23.0537981 163.585543,23.0537981 C162.977495,23.0537981 162.394902,22.9427404 161.837765,22.7215865 C161.280628,22.4999519 160.774882,22.1840865 160.321007,21.7749519 C159.840716,21.339375 159.487703,20.8441827 159.262927,20.2903365 C159.03767,19.7364904 158.924802,19.1345673 158.924802,18.4845673 C158.924802,17.8874519 159.033828,17.314375 159.2514,16.7662981 C159.468971,16.2177404 159.787884,15.7297596 160.208139,15.3013942 C160.422348,15.0836058 160.65673,14.8874519 160.911765,14.7124519 C161.166799,14.5379327 161.436242,14.389375 161.719614,14.2677404 C162.002985,14.145625 162.296443,14.0523558 162.600467,13.9884135 C162.904491,13.9249519 163.208035,13.8927404 163.512059,13.8927404 C163.876119,13.8927404 164.226731,13.9312019 164.564856,14.008125 C164.9025,14.0855288 165.240145,14.1932212 165.577789,14.3321635 L165.577789,17.0422596 Z" id="Fill-49"></path>
                        <polygon id="Fill-50" points="168.126452 22.8225962 170.383338 22.8225962 170.383338 14.1235577 168.126452 14.1235577"></polygon>
                        <polygon id="Fill-51" points="175.251613 16.0394231 175.251613 17.4927885 177.801477 17.4927885 177.801477 19.4086538 175.251613 19.4086538 175.251613 20.9072115 177.942202 20.9072115 177.942202 22.8225962 172.994727 22.8225962 172.994727 14.1240385 177.942202 14.1240385 177.942202 16.0394231"></polygon>
                        <polygon id="Fill-52" points="180.703681 14.1238462 182.960568 14.1238462 187.103075 19.4425962 187.125649 19.4425962 187.125649 14.1238462 189.382535 14.1238462 189.382535 22.8228846 187.125649 22.8228846 182.988905 17.4930769 182.960568 17.4930769 182.960568 22.8228846 180.703681 22.8228846"></polygon>
                        <path d="M197.970229,17.0422596 C197.853999,16.8845673 197.721439,16.7465865 197.573509,16.6283173 C197.4251,16.5100481 197.265643,16.4105288 197.09514,16.3297596 C196.924156,16.2489904 196.745008,16.1879327 196.557694,16.1465865 C196.369901,16.1052404 196.180186,16.0845673 195.98903,16.0845673 C195.643701,16.0845673 195.32863,16.1465865 195.043338,16.270625 C194.758525,16.3941827 194.514538,16.5653365 194.311855,16.783125 C194.109172,17.0009135 193.951637,17.2562019 193.838769,17.5494712 C193.726381,17.8422596 193.670187,18.1576442 193.670187,18.495625 C193.670187,18.8412981 193.726381,19.1586058 193.838769,19.4480288 C193.951637,19.7369712 194.111093,19.9860096 194.317618,20.1946635 C194.523663,20.4028365 194.771493,20.5662981 195.060148,20.6845673 C195.349283,20.8028365 195.670117,20.8619712 196.022651,20.8619712 C196.206602,20.8619712 196.389593,20.8403365 196.571623,20.7975481 C196.753653,20.7542788 196.927999,20.6922596 197.09514,20.6114904 C197.261801,20.5307212 197.419816,20.4340865 197.567746,20.3211058 C197.716156,20.2086058 197.850157,20.0807212 197.970229,19.9379327 L197.970229,22.6480288 C197.782436,22.7042788 197.606169,22.758125 197.440949,22.8086058 C197.276209,22.8595673 197.114832,22.9023558 196.957296,22.9384135 C196.799281,22.9739904 196.640785,23.001875 196.481328,23.0225481 C196.321872,23.0432212 196.15425,23.0537981 195.977984,23.0537981 C195.369935,23.0537981 194.787343,22.9427404 194.230206,22.7215865 C193.673068,22.4999519 193.167322,22.1840865 192.713447,21.7749519 C192.233157,21.339375 191.880143,20.8441827 191.655367,20.2903365 C191.430111,19.7364904 191.317242,19.1345673 191.317242,18.4845673 C191.317242,17.8874519 191.426268,17.314375 191.64384,16.7662981 C191.861412,16.2177404 192.180325,15.7297596 192.600579,15.3013942 C192.814789,15.0836058 193.049171,14.8874519 193.304205,14.7124519 C193.559239,14.5379327 193.828682,14.389375 194.112054,14.2677404 C194.395426,14.145625 194.688883,14.0523558 194.992907,13.9884135 C195.296931,13.9249519 195.600475,13.8927404 195.904499,13.8927404 C196.268559,13.8927404 196.619172,13.9312019 196.957296,14.008125 C197.294941,14.0855288 197.632585,14.1932212 197.970229,14.3321635 L197.970229,17.0422596 Z" id="Fill-53"></path>
                        <polygon id="Fill-54" points="202.76795 16.0394231 202.76795 17.4927885 205.317813 17.4927885 205.317813 19.4086538 202.76795 19.4086538 202.76795 20.9072115 205.458538 20.9072115 205.458538 22.8225962 200.511064 22.8225962 200.511064 14.1240385 205.458538 14.1240385 205.458538 16.0394231"></polygon>
                        <path d="M212.637876,16.3605288 C212.427989,16.1879327 212.195048,16.0489904 211.940014,15.9437019 C211.68498,15.8384135 211.418418,15.7860096 211.14081,15.7860096 C211.035626,15.7860096 210.9266,15.8009135 210.814212,15.8307212 C210.701824,15.8610096 210.597601,15.9062019 210.502023,15.9662981 C210.406446,16.0263942 210.327198,16.1023558 210.26572,16.1941827 C210.203763,16.2864904 210.172544,16.3922596 210.172544,16.5124519 C210.172544,16.6403365 210.206645,16.7494712 210.273885,16.839375 C210.341606,16.9297596 210.426138,17.0066827 210.526999,17.070625 C210.62834,17.1340865 210.737366,17.1879327 210.853596,17.2312019 C210.969827,17.2739904 211.076931,17.3110096 211.17443,17.3408173 L211.748378,17.5153365 C212.052402,17.6057212 212.334813,17.7134135 212.595611,17.839375 C212.856409,17.9653365 213.082626,18.1220673 213.273781,18.3100481 C213.465417,18.4975481 213.616229,18.7201442 213.727176,18.9773558 C213.837643,19.2350481 213.892876,19.5398558 213.892876,19.8932212 C213.892876,20.1071635 213.878948,20.3220673 213.85061,20.5379327 C213.822754,20.7542788 213.773764,20.9634135 213.704602,21.1662981 C213.63496,21.3691827 213.542264,21.5614904 213.426033,21.7437019 C213.309323,21.9259135 213.165236,22.0903365 212.992331,22.2369712 C212.650844,22.5259135 212.265651,22.7345673 211.835791,22.8619712 C211.406411,22.9898558 210.969827,23.0537981 210.526999,23.0537981 C209.979467,23.0537981 209.444904,22.9662981 208.923308,22.7917788 C208.401712,22.6172596 207.917579,22.3739904 207.470909,22.0619712 L208.439175,20.2369712 C208.581821,20.3605288 208.729751,20.4773558 208.883924,20.5860096 C209.037617,20.6951442 209.198995,20.7908173 209.367577,20.8735096 C209.536639,20.9562019 209.710985,21.020625 209.891094,21.0677404 C210.071203,21.1148558 210.257075,21.1384135 210.448231,21.1384135 C210.579831,21.1384135 210.71095,21.1211058 210.84255,21.0874519 C210.973669,21.0537981 211.09086,21.0009135 211.194122,20.9297596 C211.297385,20.858125 211.380956,20.7672596 211.444834,20.6566827 C211.508233,20.545625 211.540412,20.4134135 211.540412,20.2590865 C211.540412,20.1013942 211.491422,19.9682212 211.393923,19.8590865 C211.296424,19.7504327 211.177312,19.6571635 211.036587,19.5802404 C210.895862,19.5033173 210.746491,19.4403365 210.588956,19.3917788 C210.431421,19.3427404 210.292617,19.3013942 210.172544,19.2677404 C209.816168,19.1662981 209.493413,19.0610096 209.204758,18.9523558 C208.915623,18.8432212 208.668754,18.6994712 208.46463,18.5211058 C208.260026,18.3427404 208.10153,18.1182212 207.988662,17.8480288 C207.876274,17.5773558 207.82008,17.2316827 207.82008,16.8110096 C207.82008,16.3715865 207.894045,15.9715865 208.042455,15.6110096 C208.190384,15.2504327 208.39787,14.9437019 208.664431,14.6898558 C208.930512,14.4364904 209.246543,14.2403365 209.612525,14.1013942 C209.978507,13.9624519 210.379069,13.8927404 210.814212,13.8927404 C211.031784,13.8927404 211.260883,13.9095673 211.501028,13.9437019 C211.741174,13.9773558 211.979398,14.0254327 212.215701,14.0869712 C212.452004,14.1489904 212.683024,14.2244712 212.9078,14.3124519 C213.133056,14.4009135 213.343423,14.4994712 213.538421,14.608125 L212.637876,16.3605288 Z" id="Fill-55"></path>
                    </g>
                </g>
            </g>
        </g>
    </g>
</svg>