<?xml version="1.0" encoding="UTF-8" standalone="no"?>
<svg width="425px" height="46px" viewBox="0 0 425 46" version="1.1" xmlns="http://www.w3.org/2000/svg" xmlns:xlink="http://www.w3.org/1999/xlink">
    <!-- Generator: Sketch 39.1 (31720) - http://www.bohemiancoding.com/sketch -->
    <title>commencement_welcome</title>
    <desc>Created with Sketch.</desc>
    <defs>
        <path d="M507.329132,198.010512 L506.896676,198.010512 C505.197741,198.010512 502.757454,198.998211 499.514033,200.973608 C493.181641,205.449117 490,209.832029 490,214.122344 L490,214.554462 C490,216.406397 490.525125,218.165735 491.575376,219.832476 C493.614097,223.659808 497.537091,225.573473 503.375248,225.573473 C509.213405,225.573473 514.371988,223.443749 518.912776,219.184299 C521.013277,217.054574 522.063528,215.850816 522.063528,215.634757 C523.793352,213.968016 524.658264,212.363006 524.658264,210.788862 L524.658264,210.696265 L524.534705,210.511071 C523.082888,210.511071 521.353064,211.406173 519.345232,213.165511 C517.152062,215.356967 515.731135,216.684187 515.113341,217.085439 C512.055259,219.925073 508.379382,221.344889 504.023932,221.344889 C502.819233,221.344889 501.645424,221.221427 500.564284,221.005368 C496.455951,220.048535 494.38634,218.073138 494.38634,215.140908 L494.38634,214.616193 C494.38634,212.517334 495.405701,210.356743 497.444422,208.103556 C500.131828,205.696041 502.417667,204.091031 504.363719,203.25766 C508.224934,202.393424 510.140096,201.313129 510.140096,200.016775 L510.140096,199.893312 C510.140096,198.782152 509.213405,198.16484 507.329132,198.010512 L507.329132,198.010512 Z M529.264861,212.5482 L529.203082,212.5482 C527.565927,212.5482 526.423007,212.764259 525.743433,213.165511 C525.218308,213.875419 524.878521,214.338403 524.662293,214.523597 C523.735601,214.893983 523.241366,215.140908 523.148697,215.295236 C522.623572,216.900246 522.345564,218.628718 522.345564,220.480653 L522.345564,220.789309 C522.345564,221.560948 522.438233,222.270857 522.654461,222.980765 C523.550263,225.727801 525.094749,227.085887 527.22614,227.085887 L527.411478,227.085887 C528.33817,227.085887 529.41931,226.7155 530.624009,226.005592 C532.786289,224.246254 533.867429,221.962201 533.867429,219.091702 L533.867429,218.536122 C533.867429,217.733617 533.74387,216.992843 533.527642,216.3138 C532.755399,213.813688 531.334472,212.5482 529.264861,212.5482 L529.264861,212.5482 Z M526.330338,217.980541 L526.299448,217.486692 C526.423007,217.455826 526.608345,217.270633 526.855463,216.961977 C527.411478,216.128607 528.029272,215.696488 528.677956,215.696488 C529.573758,216.498994 530.006214,217.517558 530.006214,218.721315 L530.006214,218.937374 C530.006214,219.709014 529.789986,220.480653 529.38842,221.314024 C528.894184,222.239991 528.214611,222.888168 527.349699,223.289421 C526.701014,223.289421 526.330338,222.486916 526.237669,220.85104 L526.330338,217.980541 Z M549.161869,211.838291 L548.822082,211.838291 L548.358736,212.424737 L547.833611,212.363006 C547.493824,212.640796 547.184927,213.042049 546.906919,213.566764 C546.381794,215.079177 545.980228,216.128607 545.640441,216.776784 L545.516882,216.776784 L545.300654,216.159472 C544.528411,213.597629 543.169263,212.301275 541.223211,212.301275 C541.130542,212.301275 540.852535,212.517334 540.327409,212.918586 C539.091821,214.338403 538.412247,215.048311 538.257798,215.079177 L537.423776,214.770521 C537.331107,214.770521 537.238437,214.893983 537.145768,215.140908 C536.497084,215.356967 536.157297,215.542161 536.157297,215.634757 L536.157297,215.974279 C536.157297,216.715053 535.941069,217.085439 535.508613,217.085439 L535.446834,218.042272 L535.601282,222.085663 C535.601282,222.857303 535.477724,223.659808 535.199716,224.431447 L535.601282,224.863565 L535.601282,225.141355 L535.508613,225.450011 C536.095518,225.851264 536.620643,226.067323 537.083989,226.067323 C538.226908,226.067323 539.1536,224.740103 539.833174,222.085663 C540.512748,219.739879 541.099652,218.289197 541.593888,217.733617 C541.748336,217.733617 541.964564,218.96824 542.211682,221.468352 C542.4588,224.616641 543.354602,226.190785 544.868198,226.190785 L545.393323,226.190785 C546.258235,226.190785 547.617383,223.536345 549.439876,218.227466 L549.501656,218.227466 C549.965001,218.999105 550.551906,220.57325 551.20059,222.919034 C551.849274,225.048759 553.177532,226.129054 555.123584,226.129054 C555.278033,226.129054 555.339812,226.036457 555.339812,225.820398 C555.834048,225.419146 556.081166,225.11049 556.081166,224.956162 C555.185364,222.949899 554.413121,220.789309 553.702657,218.505256 C552.775966,215.696488 551.972833,213.751957 551.293259,212.671662 C551.20059,212.33214 550.490127,212.05435 549.161869,211.838291 L549.161869,211.838291 Z M571.375605,211.838291 L571.035818,211.838291 L570.572473,212.424737 L570.047347,212.363006 C569.707561,212.640796 569.398663,213.042049 569.120656,213.566764 C568.595531,215.079177 568.193964,216.128607 567.854177,216.776784 L567.730619,216.776784 L567.514391,216.159472 C566.742148,213.597629 565.383,212.301275 563.436948,212.301275 C563.344279,212.301275 563.066271,212.517334 562.541146,212.918586 C561.305557,214.338403 560.625983,215.048311 560.471535,215.079177 L559.637512,214.770521 C559.544843,214.770521 559.452174,214.893983 559.359505,215.140908 C558.710821,215.356967 558.371034,215.542161 558.371034,215.634757 L558.371034,215.974279 C558.371034,216.715053 558.154806,217.085439 557.72235,217.085439 L557.66057,218.042272 L557.815019,222.085663 C557.815019,222.857303 557.69146,223.659808 557.413453,224.431447 L557.815019,224.863565 L557.815019,225.141355 L557.72235,225.450011 C558.309254,225.851264 558.83438,226.067323 559.297725,226.067323 C560.440645,226.067323 561.367337,224.740103 562.04691,222.085663 C562.726484,219.739879 563.313389,218.289197 563.807624,217.733617 C563.962073,217.733617 564.178301,218.96824 564.425419,221.468352 C564.672536,224.616641 565.568338,226.190785 567.081934,226.190785 L567.60706,226.190785 C568.471972,226.190785 569.831119,223.536345 571.653613,218.227466 L571.715392,218.227466 C572.178738,218.999105 572.765643,220.57325 573.414327,222.919034 C574.063011,225.048759 575.391269,226.129054 577.337321,226.129054 C577.49177,226.129054 577.553549,226.036457 577.553549,225.820398 C578.047784,225.419146 578.294902,225.11049 578.294902,224.956162 C577.3991,222.949899 576.626857,220.789309 575.916394,218.505256 C574.989702,215.696488 574.18657,213.751957 573.506996,212.671662 C573.414327,212.33214 572.703863,212.05435 571.375605,211.838291 L571.375605,211.838291 Z M585.280008,209.523373 C584.198868,209.523373 582.963279,209.924625 581.573241,210.696265 C580.275873,211.190114 579.627189,212.424737 579.627189,214.431 L579.627189,214.893983 L579.936086,219.770745 C582.80883,224.06106 585.712464,226.190785 588.677877,226.190785 L589.295671,226.190785 C589.759017,226.190785 590.345921,226.098188 591.087275,225.94386 C593.280445,225.172221 594.94849,223.875867 596.091409,222.023932 C596.091409,221.684411 596.369417,221.468352 596.894542,221.344889 C596.987211,220.912771 597.14166,220.511519 597.357888,220.141132 C598.531697,218.566987 597.761458,218.402338 597.761458,217.723296 L597.761458,217.661564 L597.637899,217.661564 C597.54523,218.093683 597.390781,218.309742 597.112774,218.309742 C596.958325,218.278876 596.896545,218.186279 596.865656,218.093683 L596.927435,217.846758 L596.927435,217.229446 L596.834766,217.105984 L596.711207,217.105984 C596.031633,217.105984 596.400306,216.86938 595.133828,218.289197 C593.064217,221.221427 591.118164,222.672109 589.295671,222.672109 C587.967413,222.672109 586.886273,221.962201 586.052251,220.57325 L586.052251,220.511519 C589.172112,219.276896 590.747488,217.64102 590.747488,215.634757 C590.747488,215.171774 590.623929,214.492731 590.407701,213.628495 C589.079443,210.881458 587.380509,209.523373 585.280008,209.523373 Z M584.415096,217.980541 C583.735522,217.486692 583.395735,216.653321 583.395735,215.449564 C583.395735,214.677924 583.519294,214.091478 583.735522,213.690226 C583.735522,213.288973 584.044419,213.10378 584.693103,213.10378 L585.156449,213.165511 C586.237589,213.628495 586.762714,214.492731 586.762714,215.696488 C586.762714,216.005144 586.700935,216.406397 586.546486,216.900246 C585.588905,217.610154 584.878441,217.980541 584.415096,217.980541 L584.415096,217.980541 Z M609.00734,208.659137 C609.00734,208.56654 608.358656,208.350481 607.061288,208.01096 C606.165486,208.01096 605.207905,208.782599 604.157655,210.356743 C603.478081,211.560501 602.736728,212.5482 601.933595,213.319839 L601.871815,213.319839 L601.810036,213.258108 L601.995374,212.702527 C601.995374,212.486468 601.254021,212.270409 599.802204,212.05435 C599.616866,212.05435 599.524197,212.146947 599.524197,212.33214 C599.493307,212.424737 599.029961,212.733393 598.195939,213.258108 C598.195939,218.289197 597.917932,221.838739 597.361917,223.845001 L598.07238,225.11049 C598.07238,225.480877 598.257718,225.66607 598.628395,225.66607 L599.524197,225.66607 C599.925763,225.696936 600.141991,225.789533 600.141991,225.912995 C600.23466,225.882129 600.698006,225.079624 601.470249,223.443749 C603.385412,218.474391 605.053456,215.140908 606.474384,213.412436 L606.536163,213.412436 L607.864421,221.375755 C608.235097,223.165958 608.729333,224.678372 609.347127,225.912995 C609.347127,226.375979 609.995811,226.622903 611.26229,226.622903 L611.385849,226.622903 C612.281651,226.622903 612.714107,226.283382 612.714107,225.604339 L612.714107,225.480877 C612.621437,224.709237 612.528768,224.33885 612.37432,224.33885 C611.910974,222.579512 611.29318,218.906509 610.459157,213.258108 C610.026701,211.437039 609.532466,209.89376 609.00734,208.659137 L609.00734,208.659137 Z M620.718573,211.282711 C619.791881,211.282711 618.8343,211.591367 617.814939,212.239544 C615.281982,214.431 614.015504,217.054574 614.015504,220.141132 L614.015504,220.758443 L614.139063,222.147394 C615.096644,224.8327 617.011807,226.190785 619.822771,226.190785 C622.448397,226.190785 625.630038,225.079624 629.367694,222.857303 C629.707481,222.857303 629.985488,222.579512 630.232606,222.023932 C631.406415,220.912771 630.332652,220.317386 630.363542,220.101327 C630.332652,219.761806 629.992865,219.237091 629.282402,218.558048 L629.158843,218.558048 C628.726387,218.558048 629.491253,218.783046 628.070326,219.369492 C624.765126,220.85104 622.448397,221.591814 621.089249,221.591814 L620.255227,221.591814 C618.86519,221.375755 618.185616,220.665847 618.185616,219.492955 L618.185616,219.122568 C618.185616,218.536122 618.401844,217.795348 618.8343,216.838515 C619.174087,216.221203 619.94633,215.727354 621.120139,215.387833 C622.293948,215.017446 623.066191,214.461865 623.405978,213.751957 L623.405978,213.38157 L623.066191,212.609931 C623.066191,212.33214 623.097081,212.116081 623.18975,211.961754 C622.510176,211.49877 621.768823,211.282711 620.934801,211.282711 L620.718573,211.282711 Z M636.167461,209.523373 C635.086321,209.523373 633.850732,209.924625 632.460695,210.696265 C631.163327,211.190114 630.514643,212.424737 630.514643,214.431 L630.514643,214.893983 L630.82354,219.770745 C633.696284,224.06106 636.599917,226.190785 639.56533,226.190785 L640.183124,226.190785 C640.64647,226.190785 641.233375,226.098188 641.974728,225.94386 C644.167898,225.172221 645.835943,223.875867 646.978862,222.023932 C646.978862,221.684411 647.25687,221.468352 647.781995,221.344889 C647.874664,220.912771 646.971608,221.181347 647.187836,220.810961 C648.361645,219.236816 648.577873,218.033058 648.299866,218.033058 C648.145417,218.002193 648.083638,217.909596 648.052748,217.816999 L648.114528,216.952763 L648.021859,216.829301 L647.8983,216.829301 C647.218726,216.829301 647.28776,216.86938 646.021281,218.289197 C643.95167,221.221427 642.005618,222.672109 640.183124,222.672109 C638.854867,222.672109 637.773726,221.962201 636.939704,220.57325 L636.939704,220.511519 C640.059566,219.276896 641.634941,217.64102 641.634941,215.634757 C641.634941,215.171774 641.511382,214.492731 641.295154,213.628495 C639.966896,210.881458 638.267962,209.523373 636.167461,209.523373 Z M635.302549,217.980541 C634.622975,217.486692 634.283188,216.653321 634.283188,215.449564 C634.283188,214.677924 634.406747,214.091478 634.622975,213.690226 C634.622975,213.288973 634.931872,213.10378 635.580556,213.10378 L636.043902,213.165511 C637.125042,213.628495 637.650167,214.492731 637.650167,215.696488 C637.650167,216.005144 637.588388,216.406397 637.433939,216.900246 C636.476358,217.610154 635.765895,217.980541 635.302549,217.980541 L635.302549,217.980541 Z M662.211523,211.838291 L661.871736,211.838291 L661.40839,212.424737 L660.883265,212.363006 C660.543478,212.640796 660.234581,213.042049 659.956573,213.566764 C659.431448,215.079177 659.029882,216.128607 658.690095,216.776784 L658.566536,216.776784 L658.350308,216.159472 C657.578065,213.597629 656.218917,212.301275 654.272865,212.301275 C654.180196,212.301275 653.902188,212.517334 653.377063,212.918586 C652.141474,214.338403 651.461901,215.048311 651.307452,215.079177 L650.47343,214.770521 C650.380761,214.770521 650.288091,214.893983 650.195422,215.140908 C649.546738,215.356967 649.206951,215.542161 649.206951,215.634757 L649.206951,215.974279 C649.206951,216.715053 648.990723,217.085439 648.558267,217.085439 L648.496488,218.042272 L648.650936,222.085663 C648.650936,222.857303 648.527377,223.659808 648.24937,224.431447 L648.650936,224.863565 L648.650936,225.141355 L648.558267,225.450011 C649.145172,225.851264 649.670297,226.067323 650.133643,226.067323 C651.276562,226.067323 652.203254,224.740103 652.882828,222.085663 C653.562402,219.739879 654.149306,218.289197 654.643542,217.733617 C654.79799,217.733617 655.014218,218.96824 655.261336,221.468352 C655.508454,224.616641 656.404256,226.190785 657.917852,226.190785 L658.442977,226.190785 C659.307889,226.190785 660.667037,223.536345 662.48953,218.227466 L662.55131,218.227466 C663.014655,218.999105 663.60156,220.57325 664.250244,222.919034 C664.898928,225.048759 666.227186,226.129054 668.173238,226.129054 C668.327687,226.129054 668.389466,226.036457 668.389466,225.820398 C668.883702,225.419146 669.13082,225.11049 669.13082,224.956162 C668.235018,222.949899 667.462775,220.789309 666.752311,218.505256 C665.82562,215.696488 665.022487,213.751957 664.342913,212.671662 C664.250244,212.33214 663.539781,212.05435 662.211523,211.838291 L662.211523,211.838291 Z M679.900587,213.628495 C678.572329,210.881458 676.873395,209.523373 674.772894,209.523373 C673.691754,209.523373 672.456165,209.924625 671.066128,210.696265 C669.768759,211.190114 669.120075,212.424737 669.120075,214.431 L669.120075,214.893983 L669.428972,219.770745 C672.301716,224.06106 675.20535,226.190785 678.170763,226.190785 L678.788557,226.190785 C679.251903,226.190785 679.838808,226.098188 680.580161,225.94386 C682.773331,225.172221 684.441376,223.875867 685.584295,222.023932 C685.584295,221.684411 685.862303,221.468352 686.387428,221.344889 C686.480097,220.912771 686.634546,220.511519 686.850774,220.141132 C688.024583,218.566987 688.611488,217.455826 688.611488,216.776784 L688.611488,216.715053 L688.487929,216.715053 C688.39526,217.147171 688.240811,217.36323 687.962803,217.36323 C687.808355,217.332364 687.746575,217.239767 687.715686,217.147171 L687.777465,216.900246 L687.777465,216.282934 L687.684796,216.159472 L687.561237,216.159472 C686.881663,216.159472 685.893192,216.86938 684.626714,218.289197 C682.557103,221.221427 680.611051,222.672109 678.788557,222.672109 C677.460299,222.672109 676.379159,221.962201 675.545137,220.57325 L675.545137,220.511519 C678.664998,219.276896 680.240374,217.64102 680.240374,215.634757 C680.240374,215.171774 680.116815,214.492731 679.900587,213.628495 L679.900587,213.628495 Z M675.251013,217.980541 C674.571439,217.486692 674.231652,216.653321 674.231652,215.449564 C674.231652,214.677924 674.355211,214.091478 674.571439,213.690226 C674.571439,213.288973 674.880336,213.10378 675.52902,213.10378 L675.992366,213.165511 C677.073506,213.628495 677.598631,214.492731 677.598631,215.696488 C677.598631,216.005144 677.536852,216.406397 677.382403,216.900246 C676.424822,217.610154 675.714359,217.980541 675.251013,217.980541 L675.251013,217.980541 Z M699.843258,208.659137 C699.843258,208.56654 699.194574,208.350481 697.897205,208.01096 C697.001404,208.01096 696.043822,208.782599 694.993572,210.356743 C694.313998,211.560501 693.572645,212.5482 692.769512,213.319839 L692.707733,213.319839 L692.645953,213.258108 L692.831292,212.702527 C692.831292,212.486468 692.089938,212.270409 690.638122,212.05435 C690.452783,212.05435 690.360114,212.146947 690.360114,212.33214 C690.329224,212.424737 689.865879,212.733393 689.031856,213.258108 C689.031856,218.289197 688.753849,221.838739 688.197834,223.845001 L688.908297,225.11049 C688.908297,225.480877 689.093636,225.66607 689.464312,225.66607 L690.360114,225.66607 C690.761681,225.696936 690.977909,225.789533 690.977909,225.912995 C691.070578,225.882129 691.533924,225.079624 692.306166,223.443749 C694.221329,218.474391 695.889374,215.140908 697.310301,213.412436 L697.37208,213.412436 L698.700338,221.375755 C699.071015,223.165958 699.56525,224.678372 700.183045,225.912995 C700.183045,226.375979 700.831729,226.622903 702.098207,226.622903 L702.221766,226.622903 C703.117568,226.622903 703.550024,226.283382 703.550024,225.604339 L703.550024,225.480877 C703.457355,224.709237 703.364686,224.33885 703.210237,224.33885 C702.746891,222.579512 702.129097,218.906509 701.295075,213.258108 C700.862618,211.437039 700.368383,209.89376 699.843258,208.659137 L699.843258,208.659137 Z M711.369152,197.670991 L711.122034,197.670991 C710.288012,197.670991 709.577548,198.010512 709.052423,198.689555 C708.341959,204.214493 707.971283,208.751733 707.971283,212.239544 L708.033062,213.042049 L707.507937,213.042049 L707.322599,213.165511 C707.16815,213.690226 706.951922,213.937151 706.643025,213.937151 C706.643025,213.844554 706.179679,213.782823 705.252988,213.751957 C703.492274,213.751957 702.380244,214.307537 701.886008,215.387833 L701.886008,215.573026 C702.287575,216.622456 702.998038,217.147171 703.986509,217.147171 C706.179679,217.147171 707.477047,217.332364 707.847724,217.733617 C708.125731,217.733617 708.28018,219.091702 708.28018,221.838739 C708.28018,224.863565 708.836195,226.622903 709.917335,227.085887 C710.164453,226.808097 710.380681,226.653769 710.535129,226.653769 L712.141395,226.777231 C712.419402,226.684634 712.573851,225.94386 712.573851,224.554909 L712.573851,223.937598 C712.573851,223.320286 712.419402,222.826437 712.141395,222.486916 C712.388512,222.054798 712.512071,221.560948 712.512071,221.005368 L712.141395,217.023708 C712.419402,217.023708 712.573851,216.992843 712.573851,216.900246 C715.848161,216.653321 717.886882,216.437262 718.659125,216.221203 C720.419839,215.974279 721.315641,215.202639 721.315641,213.875419 C721.315641,212.980318 720.852295,212.5482 719.925604,212.5482 L718.906243,212.609931 C716.743963,213.165511 714.767021,213.443301 712.975417,213.443301 L712.141395,213.38157 L712.141395,210.788862 C712.141395,207.918363 712.542961,204.0293 713.346094,199.059942 C712.944527,198.133975 712.295843,197.670991 711.369152,197.670991 L711.369152,197.670991 Z M735.53297,198.905614 L735.254962,198.905614 C734.266491,198.905614 733.556028,199.399463 733.123572,200.356296 L732.845564,200.356296 C729.231467,200.634086 727.408974,201.436591 727.408974,202.70208 L727.408974,203.010736 C727.408974,203.628047 727.81054,203.998434 728.644562,204.091031 L731.733534,203.782375 L732.289549,203.782375 L732.289549,206.375084 C732.289549,210.356743 732.22777,213.072914 732.135101,214.461865 L732.135101,214.523597 C730.00371,215.171774 728.92257,216.190338 728.92257,217.579289 C728.92257,218.381794 729.478585,218.783046 730.559725,218.783046 L732.567557,218.783046 L733.061792,224.709237 C733.525138,226.159919 734.081153,227.116752 734.791616,227.518005 C736.305213,227.425408 737.077456,226.592038 737.077456,225.079624 L737.015676,224.493178 L736.953897,219.369492 C737.787919,219.369492 740.259097,220.048535 744.367429,221.437486 C752.522315,225.573473 757.958905,227.641467 760.646311,227.641467 L761.356774,227.579736 C763.364606,227.363677 764.353077,226.561172 764.353077,225.233952 L764.353077,225.048759 C763.086598,224.431447 760.553642,223.474614 756.723316,222.17826 C750.390924,219.709014 745.788356,217.795348 742.915612,216.437262 C744.120311,215.727354 745.633908,214.98658 747.394622,214.214941 C752.089859,212.363006 754.437477,209.739432 754.437477,206.313353 L754.437477,206.18989 C754.437477,205.510848 753.603455,204.862671 751.9663,204.276225 C743.687855,201.806978 738.77639,200.572355 737.262794,200.572355 C737.262794,199.461194 736.675889,198.905614 735.53297,198.905614 L735.53297,198.905614 Z M736.274323,206.868933 C736.274323,205.850369 736.305213,204.986133 736.397882,204.337956 C737.66436,204.337956 739.023508,204.492284 740.444435,204.800939 C741.278457,204.800939 744.460098,205.757772 749.989358,207.702304 L749.989358,207.764035 C749.278894,208.936927 748.135975,210.048088 746.529709,211.128383 C744.552767,212.208678 741.185788,213.288973 736.459661,214.338403 C736.336102,212.33214 736.274323,210.264147 736.274323,208.072691 L736.274323,206.868933 Z M767.832871,212.286513 C766.504613,209.539477 764.805678,208.181391 762.705178,208.181391 C761.624037,208.181391 760.388449,208.582644 758.998411,209.354283 C757.701043,209.848132 757.052359,211.082756 757.052359,213.089018 L757.052359,213.552002 L757.361256,218.428763 C760.234,222.719079 763.137634,224.848803 766.103047,224.848803 L766.720841,224.848803 C767.184187,224.848803 767.771091,224.756207 768.512445,224.601879 C770.705615,223.830239 772.373659,222.533885 773.516579,220.68195 C773.516579,220.342429 773.794586,220.12637 774.319712,220.002908 C774.412381,219.57079 774.566829,219.169537 774.783057,218.79915 C775.956867,217.225006 776.543771,216.113845 776.543771,215.434802 L776.543771,215.373071 L776.420212,215.373071 C776.327543,215.805189 776.173095,216.021248 775.895087,216.021248 C775.740639,215.990382 775.678859,215.897786 775.64797,215.805189 L775.709749,215.558264 L775.709749,214.940953 L775.61708,214.81749 L775.493521,214.81749 C774.813947,214.81749 773.825476,215.527399 772.558998,216.947215 C770.489387,219.879445 768.543334,221.330127 766.720841,221.330127 C765.392583,221.330127 764.311443,220.620219 763.47742,219.231268 L763.47742,219.169537 C766.597282,217.934914 768.172658,216.299038 768.172658,214.292776 C768.172658,213.829792 768.049099,213.150749 767.832871,212.286513 L767.832871,212.286513 Z M763.183297,217.980541 C762.503723,217.486692 762.163936,216.653321 762.163936,215.449564 C762.163936,214.677924 762.287495,214.091478 762.503723,213.690226 C762.503723,213.288973 762.81262,213.10378 763.461304,213.10378 L763.92465,213.165511 C765.00579,213.628495 765.530915,214.492731 765.530915,215.696488 C765.530915,216.005144 765.469136,216.406397 765.314687,216.900246 C764.357106,217.610154 763.646642,217.980541 763.183297,217.980541 L763.183297,217.980541 Z M785.644151,211.313576 L785.119026,211.313576 C783.883437,211.313576 782.616959,211.591367 781.31959,212.146947 C777.859942,213.968016 776.130118,216.560725 776.130118,219.925073 L776.130118,220.357191 C776.130118,221.252293 776.253677,222.054798 776.531684,222.702975 C776.531684,223.320286 776.871471,223.845001 777.520155,224.277119 C778.415957,225.203087 779.21909,225.66607 779.929553,225.66607 L780.392899,225.66607 C781.474039,225.66607 782.616959,224.987028 783.759878,223.628942 C785.149915,221.375755 786.045717,220.017669 786.509063,219.585551 L786.447284,220.789309 L786.632622,228.197048 C786.632622,230.697159 786.292835,232.610825 785.644151,233.968911 C785.026357,234.894878 784.315893,235.450459 783.481871,235.666518 C782.46251,234.956609 781.937385,234.586222 781.875605,234.586222 C780.23845,233.444196 779.21909,232.271304 778.848413,231.098412 C778.848413,230.882353 778.601295,230.789756 778.10706,230.789756 C777.643714,230.326773 777.334817,230.110713 777.180368,230.110713 L776.902361,230.110713 C776.593463,230.357638 776.439015,230.758891 776.439015,231.345337 C776.439015,231.931783 776.655243,232.57996 777.087699,233.320734 C778.137949,234.617088 778.663075,235.573921 778.663075,236.160367 L778.663075,236.407291 L778.786634,236.62335 C780.30023,238.197495 782.030054,239 783.976106,239 C786.076607,239 787.713762,237.765377 788.918461,235.296131 C789.752484,233.968911 790.18494,230.758891 790.18494,225.727801 C790.18494,223.104227 790.061381,219.153433 789.814263,213.844554 C789.845153,213.751957 790.061381,213.566764 790.432057,213.319839 C790.432057,213.072914 790.308498,212.918586 790.09227,212.82599 C789.07291,211.807426 787.590203,211.313576 785.644151,211.313576 L785.644151,211.313576 Z M779.929553,220.604115 L779.929553,220.171997 C779.929553,218.752181 780.516458,217.455826 781.659377,216.252069 C782.987635,215.171774 784.099665,214.647059 785.026357,214.647059 C785.149915,214.647059 785.211695,214.70879 785.242585,214.863118 C784.563011,215.881682 783.790768,217.178036 782.925856,218.721315 C782.122723,220.233728 781.165142,221.283158 780.053112,221.869604 L779.929553,220.604115 Z M794.482639,202.609483 L794.142853,202.609483 C792.876374,202.609483 792.104131,203.103333 791.764344,204.060166 L791.764344,204.399687 L791.826124,204.646611 C791.826124,205.294789 792.413028,205.63431 793.617727,205.726907 L794.081073,205.726907 C795.718228,205.449117 796.521361,204.893536 796.521361,204.121897 L796.336023,203.381123 C796.150684,202.856408 795.53289,202.609483 794.482639,202.609483 L794.482639,202.609483 Z M795.47111,209.369045 C795.47111,208.967792 795.069544,208.751733 794.235522,208.751733 C793.061712,208.751733 792.474808,209.585104 792.474808,211.282711 C792.474808,213.288973 792.505698,214.801387 792.598367,215.75822 L792.042352,223.165958 C792.042352,224.956162 792.351249,226.129054 792.969043,226.653769 C793.061712,226.653769 793.092602,226.530306 793.092602,226.283382 C793.401499,226.808097 793.741286,227.085887 794.081073,227.085887 L794.142853,227.085887 L794.575309,226.592038 C795.223993,226.468575 795.718228,226.283382 796.058015,226.067323 L796.181574,219.554686 L796.181574,217.795348 C796.181574,214.863118 795.934456,212.05435 795.47111,209.369045 L795.47111,209.369045 Z M805.699636,210.72713 L805.205401,210.72713 C804.15515,210.72713 802.981341,211.035786 801.683973,211.622232 C799.120126,212.733393 797.853648,214.307537 797.853648,216.375531 L797.853648,216.560725 C797.853648,217.887945 799.367244,218.999105 802.425326,219.894207 C805.514298,220.634981 807.614799,221.314024 808.695939,221.90047 L808.695939,221.962201 C807.923696,222.641244 806.966115,222.980765 805.823195,222.980765 C804.371378,222.980765 802.610665,222.486916 800.541053,221.468352 C799.707031,222.116529 799.305465,222.795571 799.305465,223.567211 L799.305465,223.875867 C799.305465,224.462313 799.490803,224.925296 799.892369,225.326549 C799.892369,225.94386 801.745752,226.375979 805.483408,226.622903 C806.44099,226.622903 807.46035,226.530306 808.54149,226.345113 C812.217367,225.635205 814.03986,224.246254 814.03986,222.17826 C814.03986,220.912771 813.422066,219.925073 812.155587,219.153433 C810.79644,218.505256 808.60327,217.826213 805.576077,217.116305 C803.846253,216.622456 802.765113,216.03601 802.332657,215.326102 C802.332657,214.98658 803.784474,214.616193 806.718997,214.15321 C807.676578,213.937151 808.294373,213.597629 808.57238,213.134645 C808.57238,212.918586 808.417932,212.486468 808.139924,211.807426 C807.985475,211.097517 807.182343,210.72713 805.699636,210.72713 L805.699636,210.72713 Z M819.203815,197 L818.956698,197 C818.122675,197 817.412212,197.339521 816.887086,198.018564 C816.176623,203.543503 815.805946,208.080743 815.805946,211.568553 L815.867726,212.371058 L815.342601,212.371058 L815.157262,212.49452 C815.002814,213.019235 814.786586,213.26616 814.477688,213.26616 C814.477688,213.173563 814.014343,213.111832 813.087651,213.080966 C811.326937,213.080966 810.214907,213.636547 809.720672,214.716842 L809.720672,214.902035 C810.122238,215.951465 810.832702,216.47618 811.821173,216.47618 C814.014343,216.47618 815.311711,216.661373 815.682387,217.062626 C815.960395,217.062626 816.114844,218.420711 816.114844,221.167748 C816.114844,224.192574 816.670858,225.951912 817.751999,226.414896 C817.999116,226.137106 818.215344,225.982778 818.369793,225.982778 L819.976058,226.10624 C820.254066,226.013643 820.408514,225.27287 820.408514,223.883919 L820.408514,223.266607 C820.408514,222.649295 820.254066,222.155446 819.976058,221.815925 C820.223176,221.383807 820.346735,220.889958 820.346735,220.334377 L819.976058,216.352718 C820.254066,216.352718 820.408514,216.321852 820.408514,216.229255 C823.682825,215.982331 825.721546,215.766272 826.493789,215.550212 C828.254503,215.303288 829.150305,214.531648 829.150305,213.204429 C829.150305,212.309327 828.686959,211.877209 827.760267,211.877209 L826.740907,211.93894 C824.578626,212.49452 822.601684,212.77231 820.810081,212.77231 L819.976058,212.710579 L819.976058,210.117871 C819.976058,207.247372 820.377625,203.358309 821.180757,198.388951 C820.779191,197.462984 820.130507,197 819.203815,197 L819.203815,197 Z M842.003114,209.585104 L841.848665,209.585104 C840.582187,209.585104 839.253929,210.264147 837.802112,211.591367 C836.072288,213.566764 834.74403,214.955715 833.786448,215.75822 L833.879118,214.770521 C833.60111,213.042049 832.859757,212.177813 831.624168,212.177813 L831.46972,212.177813 C830.450359,212.301275 829.832565,212.702527 829.647226,213.350705 L829.647226,214.184075 C829.647226,215.202639 829.770785,216.221203 830.017903,217.208902 C831.129933,221.993066 831.685948,224.709237 831.685948,225.38828 C832.705308,225.851264 833.199544,226.314247 833.199544,226.777231 C833.60111,226.777231 834.404243,226.499441 835.608942,225.94386 C835.608942,224.616641 835.979618,222.857303 836.751861,220.696712 C838.358127,216.653321 840.952863,213.721091 844.53607,211.900022 L844.53607,211.77656 C844.227173,211.49877 844.010945,211.035786 843.887386,210.44934 C843.887386,209.862894 843.269592,209.585104 842.003114,209.585104 L842.003114,209.585104 Z M856.463531,209.152986 L856.185523,209.152986 C855.50595,209.152986 854.857265,209.399911 854.208581,209.924625 C851.799183,210.974055 849.698682,212.239544 847.876189,213.721091 C844.941666,217.085439 843.458959,219.925073 843.458959,222.17826 L843.520739,223.196824 C843.984085,224.894431 845.065225,225.727801 846.70238,225.727801 C848.401314,225.727801 849.914911,225.048759 851.243168,223.659808 C852.324309,222.425185 853.590787,220.696712 855.042604,218.443525 L855.41328,218.906509 C856.58709,221.838739 857.390222,223.721539 857.853568,224.585775 C858.74937,225.94386 859.737841,226.838962 860.880761,227.240215 C861.096989,227.240215 861.467665,227.055021 862.05457,226.684634 C862.641474,226.684634 862.919482,226.43771 862.919482,225.974726 L862.919482,225.604339 C862.919482,225.048759 862.579695,224.277119 861.931011,223.258555 C860.788091,221.807873 859.923179,220.017669 859.336275,217.887945 C858.502252,214.091478 858.069796,211.838291 858.069796,211.128383 C857.791789,209.801163 857.266663,209.152986 856.463531,209.152986 L856.463531,209.152986 Z M847.81441,221.622679 L847.75263,221.560948 C847.75263,219.986804 848.308645,218.443525 849.451565,216.992843 C851.335838,215.079177 852.602316,213.998882 853.31278,213.782823 L853.467228,213.782823 L853.529008,213.844554 C853.529008,215.110042 852.602316,216.838515 850.779823,219.091702 C849.822241,220.789309 848.83377,221.622679 847.876189,221.622679 L847.81441,221.622679 Z M868.329212,197.670991 C867.495189,197.670991 866.784726,198.010512 866.259601,198.689555 C865.549137,204.214493 865.17846,208.751733 865.17846,212.239544 L865.24024,213.042049 L864.715115,213.042049 L864.529776,213.165511 C864.375328,213.690226 864.1591,213.937151 863.850203,213.937151 C863.850203,213.844554 863.386857,213.782823 862.460165,213.751957 C860.699451,213.751957 859.587421,214.307537 859.093186,215.387833 L859.093186,215.573026 C859.494752,216.622456 860.205216,217.147171 861.193687,217.147171 C863.386857,217.147171 864.684225,217.332364 865.054902,217.733617 C865.332909,217.733617 865.487358,219.091702 865.487358,221.838739 C865.487358,224.863565 866.043373,226.622903 867.124513,227.085887 C867.37163,226.808097 867.587858,226.653769 867.742307,226.653769 L869.348572,226.777231 C869.62658,226.684634 869.781028,225.94386 869.781028,224.554909 L869.781028,223.937598 C869.781028,223.320286 869.62658,222.826437 869.348572,222.486916 C869.59569,222.054798 869.719249,221.560948 869.719249,221.005368 L869.348572,217.023708 C869.62658,217.023708 869.781028,216.992843 869.781028,216.900246 C873.055339,216.653321 873.26966,216.805302 874.041903,216.589243 C875.802617,216.342318 876.698419,215.570679 876.698419,214.243459 C876.698419,213.348357 876.235073,212.916239 875.308382,212.916239 L874.289021,212.97797 C872.126741,213.533551 871.974198,213.443301 870.182595,213.443301 L869.348572,213.38157 L869.348572,210.788862 C869.348572,207.918363 869.750139,204.0293 870.553271,199.059942 C870.151705,198.133975 869.503021,197.670991 868.576329,197.670991 L868.329212,197.670991 Z M879.42265,202.609483 L879.082863,202.609483 C877.816384,202.609483 877.044141,203.103333 876.704354,204.060166 L876.704354,204.399687 L876.766134,204.646611 C876.766134,205.294789 877.353039,205.63431 878.557738,205.726907 L879.021083,205.726907 C880.658238,205.449117 881.461371,204.893536 881.461371,204.121897 L881.276033,203.381123 C881.090694,202.856408 880.4729,202.609483 879.42265,202.609483 L879.42265,202.609483 Z M880.411121,209.369045 C880.411121,208.967792 880.009554,208.751733 879.175532,208.751733 C878.001723,208.751733 877.414818,209.585104 877.414818,211.282711 C877.414818,213.288973 877.445708,214.801387 877.538377,215.75822 L876.982362,223.165958 C876.982362,224.956162 877.291259,226.129054 877.909053,226.653769 C878.001723,226.653769 878.032612,226.530306 878.032612,226.283382 C878.34151,226.808097 878.681296,227.085887 879.021083,227.085887 L879.082863,227.085887 L879.515319,226.592038 C880.164003,226.468575 880.658238,226.283382 880.998025,226.067323 L881.121584,219.554686 L881.121584,217.795348 C881.121584,214.863118 880.874466,212.05435 880.411121,209.369045 L880.411121,209.369045 Z M889.712955,212.5482 L889.651176,212.5482 C888.01402,212.5482 886.871101,212.764259 886.191527,213.165511 C885.666402,213.875419 885.326615,214.338403 885.110387,214.523597 C884.183695,214.893983 883.68946,215.140908 883.596791,215.295236 C883.071666,216.900246 882.793658,218.628718 882.793658,220.480653 L882.793658,220.789309 C882.793658,221.560948 882.886327,222.270857 883.102555,222.980765 C883.998357,225.727801 885.542843,227.085887 887.674234,227.085887 L887.859572,227.085887 C888.786263,227.085887 889.867404,226.7155 891.072103,226.005592 C893.234383,224.246254 894.315523,221.962201 894.315523,219.091702 L894.315523,218.536122 C894.315523,217.733617 894.191964,216.992843 893.975736,216.3138 C893.203493,213.813688 891.782566,212.5482 889.712955,212.5482 L889.712955,212.5482 Z M886.778432,217.980541 L886.747542,217.486692 C886.871101,217.455826 887.056439,217.270633 887.303557,216.961977 C887.859572,216.128607 888.477366,215.696488 889.12605,215.696488 C890.021852,216.498994 890.454308,217.517558 890.454308,218.721315 L890.454308,218.937374 C890.454308,219.709014 890.23808,220.480653 889.836514,221.314024 C889.342278,222.239991 888.662705,222.888168 887.797792,223.289421 C887.149108,223.289421 886.778432,222.486916 886.685763,220.85104 L886.778432,217.980541 Z M907.293234,208.659137 C907.293234,208.56654 906.64455,208.350481 905.347182,208.01096 C904.45138,208.01096 903.493798,208.782599 902.443548,210.356743 C901.763974,211.560501 901.022621,212.5482 900.219488,213.319839 L900.157709,213.319839 L900.095929,213.258108 L900.281268,212.702527 C900.281268,212.486468 899.539915,212.270409 898.088098,212.05435 C897.902759,212.05435 897.81009,212.146947 897.81009,212.33214 C897.779201,212.424737 897.315855,212.733393 896.481832,213.258108 C896.481832,218.289197 896.203825,221.838739 895.64781,223.845001 L896.358274,225.11049 C896.358274,225.480877 896.543612,225.66607 896.914288,225.66607 L897.81009,225.66607 C898.211657,225.696936 898.427885,225.789533 898.427885,225.912995 C898.520554,225.882129 898.9839,225.079624 899.756143,223.443749 C901.671305,218.474391 903.33935,215.140908 904.760277,213.412436 L904.822056,213.412436 L906.150314,221.375755 C906.520991,223.165958 907.015226,224.678372 907.633021,225.912995 C907.633021,226.375979 908.281705,226.622903 909.548183,226.622903 L909.671742,226.622903 C910.567544,226.622903 911,226.283382 911,225.604339 L911,225.480877 C910.907331,224.709237 910.814662,224.33885 910.660213,224.33885 C910.196867,222.579512 909.579073,218.906509 908.745051,213.258108 C908.312595,211.437039 907.818359,209.89376 907.293234,208.659137 L907.293234,208.659137 Z" id="path-1"></path>
        <filter x="-50%" y="-50%" width="200%" height="200%" filterUnits="objectBoundingBox" id="filter-2">
            <feOffset dx="0" dy="1" in="SourceAlpha" result="shadowOffsetOuter1"></feOffset>
            <feGaussianBlur stdDeviation="1" in="shadowOffsetOuter1" result="shadowBlurOuter1"></feGaussianBlur>
            <feColorMatrix values="0 0 0 0 0   0 0 0 0 0   0 0 0 0 0  0 0 0 0.5 0" type="matrix" in="shadowBlurOuter1"></feColorMatrix>
        </filter>
    </defs>
    <g id="Page-1" stroke="none" stroke-width="1" fill="none" fill-rule="evenodd">
        <g id="landing1" transform="translate(-488.000000, -196.000000)">
            <g id="commencement_welcome">
                <use fill="black" fill-opacity="1" filter="url(#filter-2)" xlink:href="#path-1"></use>
                <use fill="#FFFFFF" fill-rule="evenodd" xlink:href="#path-1"></use>
            </g>
        </g>
    </g>
</svg>